<?xml version="1.0" encoding="UTF-8"?>
<svg version="1.1" xmlns="http://www.w3.org/2000/svg" width="534" height="534">
<path d="M0 0 C0.62036133 0.34111816 1.24072266 0.68223633 1.87988281 1.03369141 C16.36155559 9.11797416 29.60707563 19.04125072 41.52148438 30.57275391 C43.05844409 32.05641746 44.61501765 33.51772277 46.171875 34.98046875 C59.37918592 47.58132151 69.83330104 62.27018529 79 78 C79.35400879 78.5995752 79.70801758 79.19915039 80.07275391 79.81689453 C106.58142604 125.18391812 111.64599673 182.43909607 98.5 232.75 C88.90097778 267.3583666 70.72231409 297.20241309 46 323 C44.93458984 324.12728516 44.93458984 324.12728516 43.84765625 325.27734375 C36.64830737 332.71225415 28.51260455 339.13576131 20 345 C20.64516929 348.74300257 21.69778469 352.08418091 23.07421875 355.62109375 C23.70070313 357.25558472 23.70070313 357.25558472 24.33984375 358.9230957 C24.78457031 360.08284912 25.22929687 361.24260254 25.6875 362.4375 C44.3743058 412.10102334 44.3743058 412.10102334 37.03515625 429.06640625 C25.51362958 450.58774853 -1.7496782 459.44696039 -23.65356445 466.14697266 C-35.931907 469.73414186 -48.36895889 472.0572424 -61 474 C-61.8029248 474.13132324 -62.60584961 474.26264648 -63.43310547 474.39794922 C-103.60520788 480.78998426 -147.89983779 475.57136755 -186 462 C-186.65758301 461.76700195 -187.31516602 461.53400391 -187.99267578 461.29394531 C-206.19451659 454.72144461 -225.67809226 446.0009253 -235 428 C-241.34336201 408.96991396 -227.82440045 382.8870796 -221.7421875 364.953125 C-221.39542465 363.9290152 -221.39542465 363.9290152 -221.04165649 362.88421631 C-219.87142618 359.45606488 -218.64239099 356.06640646 -217.32861328 352.69042969 C-215.83063365 349.18327634 -215.83063365 349.18327634 -216 346 C-217.92246248 344.3306517 -219.81408982 342.85429837 -221.875 341.375 C-223.085571 340.47304766 -224.29388543 339.56805923 -225.5 338.66015625 C-226.09941406 338.20914551 -226.69882813 337.75813477 -227.31640625 337.29345703 C-231.44772698 334.11948121 -235.23137548 330.59045173 -239 327 C-239.57008789 326.45714355 -240.14017578 325.91428711 -240.72753906 325.35498047 C-249.32655797 317.11220023 -257.12935016 308.74445896 -264 299 C-264.39993164 298.44441406 -264.79986328 297.88882812 -265.21191406 297.31640625 C-282.09315276 273.7388092 -292.81261103 247.22713946 -299 219 C-299.17934082 218.19288574 -299.35868164 217.38577148 -299.54345703 216.55419922 C-304.67106702 192.15858904 -304.24782708 163.3228521 -299 139 C-298.75056641 137.7941626 -298.75056641 137.7941626 -298.49609375 136.56396484 C-290.46715281 98.65695572 -272.0218744 65.36651919 -245.8125 37.0625 C-245.25449707 36.45962158 -244.69649414 35.85674316 -244.12158203 35.2355957 C-231.65658559 22.03381523 -216.63504647 10.86728449 -200.81640625 2.01757812 C-199.02350884 1.01317001 -197.24656029 -0.01606038 -195.46875 -1.046875 C-185.13199487 -6.91681668 -174.20988513 -11.10402713 -163 -15 C-162.27055176 -15.25410645 -161.54110352 -15.50821289 -160.78955078 -15.77001953 C-108.36522038 -33.59156724 -48.13360625 -26.47724976 0 0 Z " fill="#A479D1" transform="translate(366,41)"/>
<path d="M0 0 C0.86286621 0.24669434 1.72573242 0.49338867 2.61474609 0.74755859 C26.88305347 7.87191843 47.91579362 19.36166156 67 36 C67.71285156 36.61488281 68.42570312 37.22976562 69.16015625 37.86328125 C70.48684248 39.01614346 71.80744078 40.17605847 73.12109375 41.34375 C74.34730367 42.42465022 75.58908662 43.48820709 76.84765625 44.53125 C100.65466472 64.47634129 122.17878957 96.38453075 125 128 C126.20317581 147.64457966 121.29541571 164.22423558 108.95703125 179.53515625 C98.57882606 190.80649442 84.53414268 197.9156126 70.36938477 203.27587891 C63.61749556 205.88269019 58.12741151 209.11124222 55 216 C54.45489187 218.80969862 54.45489187 218.80969862 54.5 221.75 C54.45359375 223.19632812 54.45359375 223.19632812 54.40625 224.671875 C56.20987763 234.7816825 63.80950024 241.22810834 70.9375 248 C81.85643881 258.41095596 90.81551126 267.77226445 91.40234375 283.44335938 C91.66521991 301.15829154 84.31115421 316.3083192 72 329 C69.7265625 330.30859375 69.7265625 330.30859375 68 331 C68 331.66 68 332.32 68 333 C67.34 333 66.68 333 66 333 C65.814375 333.639375 65.62875 334.27875 65.4375 334.9375 C64.963125 335.618125 64.48875 336.29875 64 337 C61.67843403 337.40729228 59.3431213 337.74438677 57 338 C56.67 338.66 56.34 339.32 56 340 C55.01 340 54.02 340 53 340 C50.99660454 340.10417827 50.99660454 340.10417827 49 341 C48.41605469 341.74894531 47.83210938 342.49789063 47.23046875 343.26953125 C41.3123973 350.51424568 30.42350669 359.01610385 21 361 C21 358 21 358 22 356 C22.66 356 23.32 356 24 356 C24.226875 355.360625 24.45375 354.72125 24.6875 354.0625 C25.78732994 351.49623014 26.98571461 349.22344449 28.375 346.8125 C35.10870229 334.77526228 39.34874329 320.67610585 36.3125 306.875 C33.53554458 297.06309086 29.47345026 288.00230645 22.296875 280.6328125 C19.97983883 277.71558021 18.9514271 275.0506633 19.12426758 271.31201172 C19.29595459 270.36084473 19.4676416 269.40967773 19.64453125 268.4296875 C19.82693359 267.3675 20.00933594 266.3053125 20.19726562 265.2109375 C20.40029297 264.11007812 20.60332031 263.00921875 20.8125 261.875 C23.1487917 248.722543 24.23833946 236.05640274 24.25 222.6875 C24.25067474 221.98612915 24.25134949 221.2847583 24.25204468 220.56213379 C24.22208284 200.82540212 22.7891368 178.45581539 14.328125 160.265625 C12.95910748 156.8994525 12.75592418 155.22658657 13.25 151.6875 C13.36730469 150.73488281 13.48460937 149.78226563 13.60546875 148.80078125 C13.80076172 147.41439453 13.80076172 147.41439453 14 146 C16.3025681 128.14762137 16.66651855 109.38690939 6 94 C5.27683594 93.28070313 4.55367187 92.56140625 3.80859375 91.8203125 C2 90 2 90 2 88 C1.42765625 87.72929688 0.8553125 87.45859375 0.265625 87.1796875 C-2.04617669 85.97595627 -4.10993316 84.61072985 -6.25 83.125 C-15.51754732 76.89599278 -24.0361554 73.60992594 -35.3125 73.6875 C-36.57489502 73.69487183 -36.57489502 73.69487183 -37.86279297 73.70239258 C-47.66541555 73.88729405 -55.86444796 76.38480121 -64 82 C-64.33 82.66 -64.66 83.32 -65 84 C-65.86044922 83.75008301 -65.86044922 83.75008301 -66.73828125 83.49511719 C-69.02267308 82.99503659 -70.86005745 82.95624162 -73.1875 83.078125 C-73.96867188 83.10390625 -74.74984375 83.1296875 -75.5546875 83.15625 C-77.18556863 83.21877579 -78.81592534 83.29692222 -80.4453125 83.390625 C-82.73018971 83.45095179 -84.75819885 83.45241168 -87 83 C-89.4375 80.546875 -89.4375 80.546875 -91 78 C-91.66 77.67 -92.32 77.34 -93 77 C-92.5623124 73.49849919 -91.84172984 70.52500694 -90.4375 67.3125 C-88.06756672 61.23006041 -88.07921175 54.87069279 -90.0625 48.6875 C-95.37238604 41.3221742 -102.09153282 37.52946575 -111 36 C-128.29438266 34.2591463 -144.83893407 41.96309823 -158 52.625 C-159.67462153 54.07419171 -161.34220528 55.53158911 -163 57 C-164.24983927 58.02103011 -165.49981935 59.04188792 -166.75 60.0625 C-170.56643332 63.38387711 -173.79119596 67.09689333 -177 71 C-177.83660156 72.010625 -178.67320312 73.02125 -179.53515625 74.0625 C-186.47796558 82.59598326 -192.31314509 91.59610098 -198 101 C-198.66 101.99 -199.32 102.98 -200 104 C-200.66 104 -201.32 104 -202 104 C-202.26683594 104.57492188 -202.53367187 105.14984375 -202.80859375 105.7421875 C-204.04064495 108.07702551 -205.44838275 110.03894184 -207.0625 112.125 C-209.23226195 114.93627263 -209.23226195 114.93627263 -211 118 C-211.66 118 -212.32 118 -213 118 C-213.66 119.98 -214.32 121.96 -215 124 C-215.66 124 -216.32 124 -217 124 C-217.23460937 124.80695313 -217.46921875 125.61390625 -217.7109375 126.4453125 C-219.30000035 130.8272737 -221.40649114 134.78462429 -223.625 138.875 C-224.25535156 140.050625 -224.25535156 140.050625 -224.8984375 141.25 C-225.9281022 143.16892057 -226.96347567 145.08477603 -228 147 C-228.33 147 -228.66 147 -229 147 C-230.88319158 116.45044769 -212.35000548 87.47427734 -192.88671875 65.42578125 C-190.45043753 62.72626694 -187.95805185 60.08600511 -185.42773438 57.47460938 C-184.03949414 56.0407908 -182.6679068 54.59090719 -181.296875 53.140625 C-160.95864791 32.0887759 -132.62253819 13.42449992 -104.28125 5.640625 C-101.48677515 4.85587521 -98.75319247 3.91887799 -96 3 C-66.5467453 -6.18554787 -29.86468342 -8.68667662 0 0 Z M50 340 C50.99 340.495 50.99 340.495 52 341 C51.01 341.495 51.01 341.495 50 342 C50 341.34 50 340.68 50 340 Z " fill="#845CC4" transform="translate(315,28)"/>
<path d="M0 0 C9.71907925 8.50018483 15.13122384 20.40168501 16.3671875 33.0703125 C16.83161125 42.86191323 16.19498225 52.0671822 14.7578125 61.7578125 C14.08798905 67.43791539 14.41548245 71.94768943 16.7578125 77.171875 C30.67713887 108.76433702 28.54942098 154.31176598 20.125 186.9453125 C18.81414399 192.3509043 17.95148025 197.83961326 17.015625 203.3203125 C16.63862724 205.50054049 16.24057177 207.67772582 15.7890625 209.84375 C14.98407278 214.09230687 15.00147435 217.97317304 16.3671875 222.0703125 C16.6171875 225.6328125 16.6171875 225.6328125 16.3671875 229.0703125 C12.61262183 231.57335628 10.81972816 231.52311324 6.3671875 231.0703125 C5.48587158 230.40918457 4.60455566 229.74805664 3.6965332 229.06689453 C-0.6277477 226.47365781 -3.66258176 226.58675847 -8.58984375 226.75 C-9.45107346 226.76040314 -10.31230316 226.77080627 -11.19963074 226.78152466 C-13.94889427 226.81698141 -16.6966316 226.87909087 -19.4453125 226.9453125 C-47.32602308 227.52141199 -73.97808044 226.34734289 -95.3515625 206.44140625 C-96.104375 205.65894531 -96.8571875 204.87648438 -97.6328125 204.0703125 C-98.09196045 203.60093262 -98.5511084 203.13155273 -99.02416992 202.64794922 C-103.79198311 197.48080735 -106.79333838 191.56145678 -109.9453125 185.3203125 C-110.48220703 184.28003906 -111.01910156 183.23976563 -111.57226562 182.16796875 C-115.46014031 174.58832908 -115.46014031 174.58832908 -116.6328125 171.0703125 C-117.6228125 172.0603125 -117.6228125 172.0603125 -118.6328125 173.0703125 C-122.28879319 172.93490581 -124.8121536 172.61741843 -127.8828125 170.5703125 C-134.73074846 160.78754685 -133.38189811 148.74864494 -131.5703125 137.5078125 C-128.31922931 120.09990696 -124.08674531 102.77236885 -118.5703125 85.9453125 C-118.26649658 85.00550537 -117.96268066 84.06569824 -117.6496582 83.09741211 C-114.55009447 73.9946375 -110.03697024 65.74288968 -104.5078125 57.8828125 C-104.13873779 57.35147705 -103.76966309 56.8201416 -103.3894043 56.27270508 C-101.2199939 53.18390968 -98.95729931 50.19603253 -96.59765625 47.25 C-89.50262169 38.31245647 -84.94821136 30.00531225 -81.6328125 19.0703125 C-75.875 20.921875 -75.875 20.921875 -73.6953125 22.2578125 C-70.37426794 23.56610278 -68.02480871 22.97888291 -64.6328125 22.0703125 C-62.41675042 19.58715803 -62.41675042 19.58715803 -60.6328125 17.0703125 C-61.70917969 16.94914062 -62.78554687 16.82796875 -63.89453125 16.703125 C-70.68596275 15.92698373 -77.4515445 15.13743611 -84.1953125 14.0078125 C-87.78326195 13.41284873 -91.29179915 13.0068481 -94.921875 12.86328125 C-95.65204834 12.83306885 -96.38222168 12.80285645 -97.13452148 12.77172852 C-98.56580943 12.72169019 -99.9978322 12.68896149 -101.42993164 12.67553711 C-103.39453125 12.609375 -103.39453125 12.609375 -106.6328125 12.0703125 C-107.83520508 10.03662109 -107.83520508 10.03662109 -108.6328125 8.0703125 C-104.75782846 8.04114016 -100.88287292 8.02345577 -97.0078125 8.0078125 C-95.91339844 7.99943359 -94.81898438 7.99105469 -93.69140625 7.98242188 C-92.09619141 7.97758789 -92.09619141 7.97758789 -90.46875 7.97265625 C-89.00767822 7.96480103 -89.00767822 7.96480103 -87.51708984 7.95678711 C-84.48004051 8.07632562 -81.62460039 8.54853517 -78.6328125 9.0703125 C-76.9812921 9.20502915 -75.32717166 9.31147799 -73.671875 9.38671875 C-72.78886719 9.42861328 -71.90585938 9.47050781 -70.99609375 9.51367188 C-70.09246094 9.55298828 -69.18882812 9.59230469 -68.2578125 9.6328125 C-66.86755859 9.69758789 -66.86755859 9.69758789 -65.44921875 9.76367188 C-63.17720956 9.86907436 -60.90510325 9.97119856 -58.6328125 10.0703125 C-59.05875838 8.62934664 -59.49907883 7.19262538 -59.9453125 5.7578125 C-60.18894531 4.95730469 -60.43257813 4.15679687 -60.68359375 3.33203125 C-61.67463273 0.97066677 -62.71356193 -0.26848743 -64.6328125 -1.9296875 C-63.6328125 -4.9296875 -63.6328125 -4.9296875 -60.6484375 -6.71875 C-59.39835453 -7.34113173 -58.14285473 -7.95272401 -56.8828125 -8.5546875 C-56.26148438 -8.86664063 -55.64015625 -9.17859375 -55 -9.5 C-35.97986135 -18.80943495 -15.91392905 -11.66391832 0 0 Z " fill="#5B526C" transform="translate(314.6328125,113.9296875)"/>
<path d="M0 0 C25.52357266 60.54608462 25.52357266 60.54608462 18.875 81.125 C11.6210607 97.89340852 -6.27710379 106.61865406 -22.30859375 113.2109375 C-40.99075257 120.52045975 -60.21446176 124.95682213 -80 128 C-80.8029248 128.13132324 -81.60584961 128.26264648 -82.43310547 128.39794922 C-122.60520788 134.78998426 -166.89983779 129.57136755 -205 116 C-205.98637451 115.65050293 -205.98637451 115.65050293 -206.99267578 115.29394531 C-225.19451659 108.72144461 -244.67809226 100.0009253 -254 82 C-261.50658351 59.48024947 -242.8046792 21.83569743 -234 1 C-232.68 1.33 -231.36 1.66 -230 2 C-229.79375 3.299375 -229.5875 4.59875 -229.375 5.9375 C-226.9472293 16.61969107 -219.10941812 23.77180779 -210.38671875 29.80859375 C-190.14162397 42.38127363 -166.46252973 46.82385817 -143.15600586 49.71777344 C-141.34118769 49.95533768 -139.53426926 50.25216873 -137.73046875 50.5625 C-109.75426748 53.84347858 -79.93143088 49.79594052 -53 42 C-52.22914063 41.81050781 -51.45828125 41.62101562 -50.6640625 41.42578125 C-36.18243798 37.64901207 -19.29239996 28.94383141 -10 17 C-7.65119512 12.86198011 -6.1052976 8.58309335 -4.875 4 C-4.58625 3.01 -4.2975 2.02 -4 1 C-2 0 -2 0 0 0 Z " fill="#8C5738" transform="translate(385,387)"/>
<path d="M0 0 C0.62036133 0.34111816 1.24072266 0.68223633 1.87988281 1.03369141 C16.36155559 9.11797416 29.60707563 19.04125072 41.52148438 30.57275391 C43.05844409 32.05641746 44.61501765 33.51772277 46.171875 34.98046875 C59.37918592 47.58132151 69.83330104 62.27018529 79 78 C79.35400879 78.5995752 79.70801758 79.19915039 80.07275391 79.81689453 C106.58142604 125.18391812 111.64599673 182.43909607 98.5 232.75 C88.90097778 267.3583666 70.72231409 297.20241309 46 323 C44.93458984 324.12728516 44.93458984 324.12728516 43.84765625 325.27734375 C35.59075242 333.80441212 25.68040522 342.65979739 15 348 C14.49505661 349.85385908 14.49505661 349.85385908 14.1875 352.0625 C12.37467438 360.80834574 6.86397508 367.4680013 0 373 C-4.54686767 375.92105087 -9.22266451 378.47817558 -14 381 C-15.25103516 381.7115625 -15.25103516 381.7115625 -16.52734375 382.4375 C-50.37260916 400.95114945 -100.21956863 401.57319553 -137 395 C-138.28076416 394.7831958 -138.28076416 394.7831958 -139.58740234 394.56201172 C-165.14172377 390.19577667 -191.45768028 382.20212809 -208 361 C-210.64520215 356.78420908 -211.35449391 353.9629148 -211 349 C-207.006914 350.46609615 -203.52489847 352.38575332 -199.875 354.5625 C-184.63640005 363.39774346 -168.88492153 370.01314221 -152 375 C-151.23864746 375.23654297 -150.47729492 375.47308594 -149.69287109 375.71679688 C-121.97795359 384.1578885 -87.16962294 374.63847987 -61 364.06640625 C-59.88625 363.61890015 -59.88625 363.61890015 -58.75 363.16235352 C-58.1725 362.77877686 -57.595 362.3952002 -57 362 C-56.89558594 361.35305176 -56.79117188 360.70610352 -56.68359375 360.03955078 C-56.45800781 359.36649902 -56.23242188 358.69344727 -56 358 C-53.65030369 356.88029541 -51.52804685 356.06878603 -49.0625 355.30078125 C-47.60291343 354.813574 -46.14336069 354.32626543 -44.68383789 353.83886719 C-43.9179837 353.58987671 -43.15212952 353.34088623 -42.36306763 353.08435059 C-21.32826714 346.21373762 -2.03545 337.86394786 14 322 C14.33 321.34 14.66 320.68 15 320 C15.66 320 16.32 320 17 320 C17 319.34 17 318.68 17 318 C18.45311297 316.79987504 19.90853721 315.60238018 21.37841797 314.42285156 C30.30049789 306.5942033 37.96880055 291.62983394 39.22143555 279.93212891 C40.03446615 264.54868843 37.21218587 254.75994658 27 243 C23.05089318 238.89834201 18.93298055 234.97474964 14.80273438 231.05664062 C8.97273105 225.38534035 4.06298867 219.89924946 2.30078125 211.77734375 C2.32656821 205.52830471 3.06992155 201.58231686 7.1015625 196.71875 C12.41776151 191.90573032 18.38485316 189.49700531 24.9375 186.875 C43.52599336 179.14756237 58.82854927 168.50890056 68 150 C76.47045442 126.59608548 73.33523397 104.06570449 63.00683594 81.86523438 C52.86996192 60.91001581 37.94371343 40.87645404 19.28515625 26.796875 C17.08670916 25.06818156 15.09186716 23.23464032 13.0625 21.3125 C-6.91314061 3.3588265 -32.70375741 -8.36630258 -58.8762207 -13.57397461 C-60.35638135 -13.87089153 -61.83140402 -14.1941148 -63.30151367 -14.53735352 C-72.25708387 -16.46099047 -81.19771991 -16.3531244 -90.3125 -16.3125 C-91.57764435 -16.30976578 -91.57764435 -16.30976578 -92.86834717 -16.30697632 C-115.22050364 -16.22563505 -138.3547807 -14.26977608 -159 -5 C-161.12092317 -4.17691668 -163.24590113 -3.36419772 -165.375 -2.5625 C-169.29448588 -1.07300537 -173.13629776 0.48125107 -176.9375 2.25 C-180.26929548 3.77451158 -183.32574876 4.62315372 -187 5 C-187.66 4.01 -188.32 3.02 -189 2 C-189.33 2.66 -189.66 3.32 -190 4 C-190.66 3.34 -191.32 2.68 -192 2 C-191.67680469 -1.3396849 -190.45681451 -2.82649899 -188 -5 C-131.69723512 -36.55640485 -55.00944532 -30.25949926 0 0 Z " fill="#91B1EA" transform="translate(366,41)"/>
<path d="M0 0 C25.9477425 18.02908539 44.87061435 49.57280054 52 80 C55.31831609 99.29303008 51.77073565 117.02862383 41.01171875 133.24609375 C30.48434255 147.65735631 14.78106022 156.06532794 -1.63061523 162.27587891 C-8.38250444 164.88269019 -13.87258849 168.11124222 -17 175 C-17.54510813 177.80969862 -17.54510813 177.80969862 -17.5 180.75 C-17.5309375 181.71421875 -17.561875 182.6784375 -17.59375 183.671875 C-15.79012237 193.7816825 -8.19049976 200.22810834 -1.0625 207 C9.85643881 217.41095596 18.81551126 226.77226445 19.40234375 242.44335938 C19.66521991 260.15829154 12.31115421 275.3083192 0 288 C-2.2734375 289.30859375 -2.2734375 289.30859375 -4 290 C-4 290.66 -4 291.32 -4 292 C-4.66 292 -5.32 292 -6 292 C-6.185625 292.639375 -6.37125 293.27875 -6.5625 293.9375 C-7.036875 294.618125 -7.51125 295.29875 -8 296 C-10.32156597 296.40729228 -12.6568787 296.74438677 -15 297 C-15.33 297.66 -15.66 298.32 -16 299 C-16.99 299 -17.98 299 -19 299 C-21.00339546 299.10417827 -21.00339546 299.10417827 -23 300 C-23.58394531 300.74894531 -24.16789062 301.49789063 -24.76953125 302.26953125 C-30.6876027 309.51424568 -41.57649331 318.01610385 -51 320 C-51 317 -51 317 -50 315 C-49.34 315 -48.68 315 -48 315 C-47.773125 314.360625 -47.54625 313.72125 -47.3125 313.0625 C-46.21267006 310.49623014 -45.01428539 308.22344449 -43.625 305.8125 C-36.89129771 293.77526228 -32.65125671 279.67610585 -35.6875 265.875 C-38.46445542 256.06309086 -42.52654974 247.00230645 -49.703125 239.6328125 C-52.02016117 236.71558021 -53.0485729 234.0506633 -52.87573242 230.31201172 C-52.6182019 228.88526123 -52.6182019 228.88526123 -52.35546875 227.4296875 C-52.08186523 225.83640625 -52.08186523 225.83640625 -51.80273438 224.2109375 C-51.59970703 223.11007812 -51.39667969 222.00921875 -51.1875 220.875 C-48.8512083 207.722543 -47.76166054 195.05640274 -47.75 181.6875 C-47.74932526 180.98612915 -47.74865051 180.2847583 -47.74795532 179.56213379 C-47.77787903 159.85051966 -49.18648387 137.44132492 -57.671875 119.28515625 C-59.06482118 115.8396629 -59.23176436 114.00917894 -58.75 110.375 C-58.64171875 109.47523438 -58.5334375 108.57546875 -58.421875 107.6484375 C-58.01311489 105.08233238 -57.51659533 102.54622916 -57 100 C-56.29206299 99.84966309 -55.58412598 99.69932617 -54.85473633 99.54443359 C-14.57565075 92.85226655 -14.57565075 92.85226655 16.25 68.875 C21.6218493 59.75534886 24.39320075 50.28618031 22.37109375 39.7109375 C18.451699 25.70607091 11.86282304 13.4314467 1.234375 3.3203125 C0 2 0 2 0 0 Z M-22 299 C-21.01 299.495 -21.01 299.495 -20 300 C-20.99 300.495 -20.99 300.495 -22 301 C-22 300.34 -22 299.68 -22 299 Z " fill="#737CD0" transform="translate(387,69)"/>
<path d="M0 0 C5.12423102 2.96066681 7.40744262 6.11852014 9.21484375 11.80078125 C10.99299435 20.72193 10.80223712 30.25131952 6.10546875 38.16796875 C3.41787637 41.77827677 0.91089021 43.68074493 -3.328125 45.09375 C-8.35325573 45.62134548 -12.20863012 45.66367466 -16.765625 43.34375 C-19.00644869 41.37619749 -20.72108068 39.59359673 -22.328125 37.09375 C-24.20693372 37.14143403 -24.20693372 37.14143403 -26.328125 38.09375 C-40.06630927 56.40231448 -40.26518442 85.30715891 -41.328125 107.09375 C-41.36421875 107.82706543 -41.4003125 108.56038086 -41.4375 109.31591797 C-41.60249561 113.26034427 -41.52959215 117.1520015 -41.328125 121.09375 C-41.29235352 121.88974609 -41.25658203 122.68574219 -41.21972656 123.50585938 C-40.66451274 134.56960918 -40.13041354 144.86825435 -33.328125 154.09375 C-30.09071758 156.25202162 -29.08579197 156.82695331 -25.328125 156.09375 C-22.97489704 153.18962454 -22.97489704 153.18962454 -21.328125 150.09375 C-19.30470766 153.128876 -18.85405147 154.8388629 -18.140625 158.34375 C-16.72846556 164.36749261 -14.41945979 169.60303307 -11.6652832 175.10449219 C-10.23912478 177.97896739 -9.328125 179.8356922 -9.328125 183.09375 C-35.33150916 183.86316845 -61.09633064 182.91061547 -82.328125 166.09375 C-83.875 164.98 -83.875 164.98 -85.453125 163.84375 C-102.55058449 147.48965832 -109.03712215 123.5468601 -109.62890625 100.5859375 C-109.64832807 98.04694628 -109.65189246 95.5077905 -109.640625 92.96875 C-109.63846985 92.29910217 -109.6363147 91.62945435 -109.63409424 90.93951416 C-109.49317348 63.44530377 -105.4334609 35.10935306 -85.9140625 14.52734375 C-83.71596874 12.45874494 -82.09866309 11.19286018 -79.328125 10.09375 C-78.92464844 10.51785156 -78.52117187 10.94195312 -78.10546875 11.37890625 C-69.1229747 20.0562625 -55.96259079 26.24627452 -43.3671875 26.046875 C-37.19558305 25.64268932 -31.32149238 24.59209185 -25.328125 23.09375 C-25.30234375 22.3925 -25.2765625 21.69125 -25.25 20.96875 C-24.78126552 13.12810054 -23.58553363 7.19226065 -17.765625 1.65625 C-12.47773822 -1.73342101 -5.8725232 -2.28594863 0 0 Z " fill="#E6D5EF" transform="translate(310.328125,151.90625)"/>
<path d="M0 0 C34.68086787 -0.87050371 71.93163187 16.71680354 97 40 C111.59966635 54.25642916 125.12314445 71.83887561 126.4375 93 C125.87048781 104.41112032 119.55662174 115.94382086 111.4375 123.75 C94.99897848 136.80137814 65.8824789 145.36280124 45 145 C45.01571045 144.40687012 45.0314209 143.81374023 45.04760742 143.20263672 C45.420112 126.96017961 45.65208168 111.92354081 36 98 C35.27683594 97.28070313 34.55367188 96.56140625 33.80859375 95.8203125 C32 94 32 94 32 92 C31.38125 91.7525 30.7625 91.505 30.125 91.25 C27.49128294 89.70075467 26.77599251 88.96468932 26 86 C27.27525777 83.63253581 28.54977648 81.65176241 30.125 79.5 C35.71842032 71.36925905 39.23383579 62.96013475 40 53 C40.103125 51.80375 40.20625 50.6075 40.3125 49.375 C40.07624617 38.27107004 34.99787604 29.26415837 28 21 C27.47792969 20.36578125 26.95585937 19.7315625 26.41796875 19.078125 C19.32382564 11.24762779 9.10353988 6.1439645 0 1 C0 0.67 0 0.34 0 0 Z " fill="#5A56BF" transform="translate(285,24)"/>
<path d="M0 0 C4.84951381 3.96778403 9.32859021 8.09807731 9.98828125 14.59765625 C10.18275827 21.71142084 9.01289951 26.93912251 5.75 33.25 C5.07324219 34.56097656 5.07324219 34.56097656 4.3828125 35.8984375 C-3.34544702 49.31715676 -15.85321362 57.6172307 -28.453125 66.01171875 C-40.03460767 73.75211837 -52.55350601 82.21818057 -62.25 92.25 C-62.91 92.91 -63.57 93.57 -64.25 94.25 C-64.91 94.25 -65.57 94.25 -66.25 94.25 C-66.25 94.91 -66.25 95.57 -66.25 96.25 C-66.91 96.25 -67.57 96.25 -68.25 96.25 C-68.5078125 96.8275 -68.765625 97.405 -69.03125 98 C-70.75935148 101.19034119 -73.14608267 103.59490324 -75.59375 106.25 C-77.18894694 108.17627555 -78.23432918 109.97489737 -79.25 112.25 C-79.91 112.25 -80.57 112.25 -81.25 112.25 C-81.29125 112.930625 -81.3325 113.61125 -81.375 114.3125 C-82.60298961 118.43503653 -85.09923793 121.34996171 -88.25 124.25 C-88.91 124.25 -89.57 124.25 -90.25 124.25 C-90.58 124.91 -90.91 125.57 -91.25 126.25 C-91.25 125.59 -91.25 124.93 -91.25 124.25 C-91.86875 124.435625 -92.4875 124.62125 -93.125 124.8125 C-95.25 125.25 -95.25 125.25 -97.25 124.25 C-97.58 124.91 -97.91 125.57 -98.25 126.25 C-102.38921544 128.10642924 -106.74950772 129.28962123 -111.25 129.8125 C-112.735 130.0290625 -112.735 130.0290625 -114.25 130.25 C-114.745 131.24 -114.745 131.24 -115.25 132.25 C-117.8125 132.875 -117.8125 132.875 -120.25 133.25 C-121.42480037 103.35785717 -110.6261117 72.49216909 -93.25 48.25 C-92.55261719 47.2703125 -91.85523437 46.290625 -91.13671875 45.28125 C-86.8268929 39.38594417 -82.26265188 33.85378372 -77.29296875 28.50390625 C-75.87570623 26.9403107 -74.51646613 25.32291418 -73.20703125 23.66796875 C-70.26880372 20.0377036 -66.85079475 17.20631753 -63.25 14.25 C-62.37214844 13.52296875 -61.49429688 12.7959375 -60.58984375 12.046875 C-43.62565401 -1.37835187 -20.5919179 -11.08795579 0 0 Z " fill="#EBDEF3" transform="translate(217.25,67.75)"/>
<path d="M0 0 C5.12423102 2.96066681 7.40744262 6.11852014 9.21484375 11.80078125 C10.99299435 20.72193 10.80223712 30.25131952 6.10546875 38.16796875 C3.41787637 41.77827677 0.91089021 43.68074493 -3.328125 45.09375 C-8.35325573 45.62134548 -12.20863012 45.66367466 -16.765625 43.34375 C-19.00644869 41.37619749 -20.72108068 39.59359673 -22.328125 37.09375 C-24.20693372 37.14143403 -24.20693372 37.14143403 -26.328125 38.09375 C-40.12328202 56.47824076 -40.10581195 85.26353704 -41.328125 107.09375 C-41.658125 105.77375 -41.988125 104.45375 -42.328125 103.09375 C-43.50375 102.908125 -43.50375 102.908125 -44.703125 102.71875 C-47.328125 102.09375 -47.328125 102.09375 -49.328125 100.09375 C-51.56833888 98.80573329 -53.84939843 97.6122241 -56.13671875 96.41015625 C-58.22742636 95.15424099 -59.64405703 93.83214275 -61.328125 92.09375 C-63.22991285 91.49313767 -63.22991285 91.49313767 -65.328125 91.09375 C-67.0025489 90.4468135 -68.67115121 89.78415574 -70.328125 89.09375 C-70.328125 88.43375 -70.328125 87.77375 -70.328125 87.09375 C-73.69909883 85.59553941 -75.53254619 85.09375 -79.328125 85.09375 C-79.328125 84.43375 -79.328125 83.77375 -79.328125 83.09375 C-80.33875 82.805 -81.349375 82.51625 -82.390625 82.21875 C-86.03645833 81.17708333 -89.68229167 80.13541667 -93.328125 79.09375 C-93.328125 78.43375 -93.328125 77.77375 -93.328125 77.09375 C-94.33875 76.805 -95.349375 76.51625 -96.390625 76.21875 C-97.34001953 75.94417969 -97.34001953 75.94417969 -98.30859375 75.6640625 C-99.63995497 75.28808815 -100.976003 74.92828018 -102.31640625 74.5859375 C-104.00300964 74.14595401 -105.66800395 73.62498874 -107.328125 73.09375 C-111.67956973 64.39086054 -103.92281282 45.98612227 -101.12060547 37.38134766 C-97.70819776 27.53099022 -90.30242928 16.09406165 -80.9921875 10.75390625 C-80.44304687 10.53605469 -79.89390625 10.31820312 -79.328125 10.09375 C-78.92464844 10.51785156 -78.52117187 10.94195312 -78.10546875 11.37890625 C-69.1229747 20.0562625 -55.96259079 26.24627452 -43.3671875 26.046875 C-37.19558305 25.64268932 -31.32149238 24.59209185 -25.328125 23.09375 C-25.30234375 22.3925 -25.2765625 21.69125 -25.25 20.96875 C-24.78126552 13.12810054 -23.58553363 7.19226065 -17.765625 1.65625 C-12.47773822 -1.73342101 -5.8725232 -2.28594863 0 0 Z " fill="#DFC6C5" transform="translate(310.328125,151.90625)"/>
<path d="M0 0 C1.76293137 3.29274785 2.59974992 6.41626793 3.35546875 10.078125 C3.87628103 12.43914066 4.44457137 14.76969228 5.05078125 17.109375 C5.33042725 18.1926709 5.33042725 18.1926709 5.61572266 19.29785156 C5.99517333 20.75927134 6.37892603 22.21958125 6.76708984 23.67871094 C7.22158308 25.44182396 7.6164742 27.22010124 8 29 C7.505 29.495 7.505 29.495 7 30 C7.33 30 7.66 30 8 30 C8.19736646 33.25654656 7.85391215 35.50701079 6.9375 38.6875 C5.64191442 41.84539905 5.64191442 41.84539905 7 44 C6.67 44.99 6.34 45.98 6 47 C6.1753125 47.639375 6.350625 48.27875 6.53125 48.9375 C7.24983617 52.09927917 5.89056947 54.13805359 4.59375 57 C3.81177003 59.01263949 3.81177003 59.01263949 4.53125 61.125 C4.6859375 61.74375 4.840625 62.3625 5 63 C4.34 63.66 3.68 64.32 3 65 C0.72766902 70.14264381 -0.21920519 75.19349783 -0.69140625 80.75390625 C-1.12242229 83.89104834 -2.16944362 86.6957906 -3.2421875 89.6640625 C-4.31388374 92.96753852 -4.8944362 96.31852267 -5.47265625 99.73828125 C-6.01861858 102.07985301 -6.8764756 103.88410192 -8 106 C-8.67939174 107.99571323 -9.34561559 109.99594773 -10 112 C-10.65257873 113.672233 -11.31867549 115.33927151 -12 117 C-12.350625 117.886875 -12.70125 118.77375 -13.0625 119.6875 C-14.78819967 123.94422585 -17.36381734 127.15799354 -20.125 130.8125 C-22.20472862 134.34803865 -22.55139373 136.96254356 -23 141 C-24.0625 143.4375 -24.0625 143.4375 -25 145 C-25.66 145 -26.32 145 -27 145 C-27.33 145.99 -27.66 146.98 -28 148 C-29.98 148.33 -31.96 148.66 -34 149 C-34.02578125 147.90042969 -34.0515625 146.80085937 -34.078125 145.66796875 C-34.80010132 124.22016712 -43.93129286 113.53852452 -59.19726562 99.05664062 C-65.02726895 93.38534035 -69.93701133 87.89924946 -71.69921875 79.77734375 C-71.67343179 73.52830471 -70.93007845 69.58231686 -66.8984375 64.71875 C-61.58223849 59.90573032 -55.61514684 57.49700531 -49.0625 54.875 C-30.94564076 47.34362577 -14.37324614 36.53640835 -6 18 C-4.36639762 13.52743776 -3.10429424 8.9656399 -1.91015625 4.359375 C-1 1 -1 1 0 0 Z " fill="#9AA5E4" transform="translate(440,173)"/>
<path d="M0 0 C0.99 0.99 0.99 0.99 2 2 C-6.4134946 10.38328457 -15.33160707 17.17873643 -25.203125 23.76171875 C-36.78460767 31.50211837 -49.30350601 39.96818057 -59 50 C-59.66 50.66 -60.32 51.32 -61 52 C-61.66 52 -62.32 52 -63 52 C-63 52.66 -63 53.32 -63 54 C-63.66 54 -64.32 54 -65 54 C-65.2578125 54.5775 -65.515625 55.155 -65.78125 55.75 C-67.50935148 58.94034119 -69.89608267 61.34490324 -72.34375 64 C-73.93894694 65.92627555 -74.98432918 67.72489737 -76 70 C-76.66 70 -77.32 70 -78 70 C-78.04125 70.680625 -78.0825 71.36125 -78.125 72.0625 C-79.35298961 76.18503653 -81.84923793 79.09996171 -85 82 C-85.66 82 -86.32 82 -87 82 C-87.33 82.66 -87.66 83.32 -88 84 C-88 83.34 -88 82.68 -88 82 C-88.61875 82.185625 -89.2375 82.37125 -89.875 82.5625 C-92 83 -92 83 -94 82 C-94.33 82.66 -94.66 83.32 -95 84 C-99.13921544 85.85642924 -103.49950772 87.03962123 -108 87.5625 C-109.485 87.7790625 -109.485 87.7790625 -111 88 C-111.495 88.99 -111.495 88.99 -112 90 C-114.5625 90.625 -114.5625 90.625 -117 91 C-117.95339173 66.74147705 -110.87827127 44.52508995 -100 23 C-99.01 23.33 -98.02 23.66 -97 24 C-94.78763476 23.42949469 -94.78763476 23.42949469 -92.5 22.5 C-88.33333333 20.88888889 -88.33333333 20.88888889 -85 22 C-84.67 21.34 -84.34 20.68 -84 20 C-81.68060793 19.2863409 -79.34476551 18.6252708 -77 18 C-76.175 17.67 -75.35 17.34 -74.5 17 C-71.38711561 15.75484624 -68.23015184 14.90020625 -65 14 C-64.15308594 13.72671875 -63.30617187 13.4534375 -62.43359375 13.171875 C-61.54800781 12.88828125 -60.66242188 12.6046875 -59.75 12.3125 C-58.50476563 11.90451172 -58.50476563 11.90451172 -57.234375 11.48828125 C-55 11 -55 11 -52 12 C-50.32176819 11.3630069 -48.65777671 10.68847557 -47 10 C-44.10426676 9.23750542 -41.17858159 8.62268845 -38.25 8 C-37.10917969 7.7525 -37.10917969 7.7525 -35.9453125 7.5 C-34.41040705 7.16700356 -32.87516855 6.83553854 -31.33959961 6.50561523 C-28.18799327 5.82451571 -25.04083286 5.12399586 -21.89379883 4.42211914 C-18.29278575 3.61946971 -14.79753778 2.97714136 -11.125 2.5625 C-7.25243699 2.1060382 -3.71875616 1.1621113 0 0 Z " fill="#DFBFE8" transform="translate(214,110)"/>
<path d="M0 0 C2 1 2 1 3.24926758 4.65844727 C3.72148515 6.29238991 4.18600762 7.92856801 4.64453125 9.56640625 C5.1618899 11.34967306 5.67947549 13.13287405 6.19726562 14.91601562 C7.00437158 17.73000608 7.80754983 20.54503197 8.60571289 23.36157227 C9.37889301 26.07885776 10.16721118 28.79141828 10.95703125 31.50390625 C11.18743607 32.33443008 11.41784088 33.16495392 11.65522766 34.02064514 C14.56576065 43.95865077 19.1644723 50.66541275 28.2265625 55.84375 C29.34804687 56.3903125 30.46953125 56.936875 31.625 57.5 C32.52436279 57.94001343 32.52436279 57.94001343 33.44189453 58.38891602 C39.19247329 61.16732805 45.06567529 63.64148633 51 66 C51 66.66 51 67.32 51 68 C50.32533691 68.25579834 49.65067383 68.51159668 48.95556641 68.77514648 C28.62029466 75.64681773 28.62029466 75.64681773 15.06201172 91.09741211 C13.08397097 95.62494968 11.6096225 100.18695586 10.2734375 104.9375 C9.79431442 106.58985639 9.31514652 108.24219978 8.8359375 109.89453125 C8.09868619 112.46600446 7.364106 115.03822194 6.63085938 117.61083984 C5.91400343 120.11747136 5.18788411 122.62127978 4.4609375 125.125 C4.24319672 125.90093506 4.02545593 126.67687012 3.80111694 127.47631836 C3.2598124 129.33576827 2.63726411 131.17121378 2 133 C1.34 133.33 0.68 133.66 0 134 C-0.24645264 133.20005615 -0.49290527 132.4001123 -0.74682617 131.57592773 C-2.92047973 124.52740588 -5.10531242 117.48257346 -7.30632019 110.44255066 C-8.39000457 106.97242884 -9.45620743 103.49793299 -10.5 100.015625 C-13.6220611 89.78715816 -17.18919989 82.90352024 -26.72265625 77.5859375 C-34.00306689 74.06287824 -41.50097334 71.02316782 -49 68 C-49 67.34 -49 66.68 -49 66 C-48.32533691 65.71390869 -47.65067383 65.42781738 -46.95556641 65.13305664 C-27.60916085 58.12475222 -27.60916085 58.12475222 -14.06713867 43.86938477 C-10.85959282 35.38777776 -8.39972508 26.62365685 -5.8125 17.9375 C-5.13771326 15.67769867 -4.46198574 13.41819175 -3.78410339 11.15931702 C-3.36593812 9.76538954 -2.94961091 8.37090899 -2.53535461 6.97581482 C-1.11199018 2.22398036 -1.11199018 2.22398036 0 0 Z " fill="#FED44F" transform="translate(69,320)"/>
<path d="M0 0 C-0.47517098 14.73030038 -4.78919808 29.22019891 -14 41 C-14.66 41 -15.32 41 -16 41 C-16.33 42.32 -16.66 43.64 -17 45 C-6.97559841 42.10834569 0.80435835 35.35636904 8 28 C11.62068966 25 11.62068966 25 14 25 C14.99 24.34 15.98 23.68 17 23 C17.66 23 18.32 23 19 23 C20.67745682 22.36096883 22.34561387 21.69658363 24 21 C24 24 24 24 22.26953125 25.76171875 C6.89778723 37.80984244 -9.83644668 45.98614146 -28.296875 52.06298828 C-30.37272307 52.74924727 -32.44007337 53.4577028 -34.5078125 54.16796875 C-48.33376147 58.82439596 -62.39911456 61.40631724 -77 62 C-77.96292969 62.04125 -78.92585938 62.0825 -79.91796875 62.125 C-98.20699122 62.50355674 -122.61403778 61.85525293 -139 53 C-139 52.67 -139 52.34 -139 52 C-138.34741211 51.86013672 -137.69482422 51.72027344 -137.02246094 51.57617188 C-119.29612017 47.71425105 -101.03320783 43.50824659 -85.875 33.03125 C-84 32 -84 32 -80 32 C-79.319375 31.649375 -78.63875 31.29875 -77.9375 30.9375 C-76 30 -76 30 -73 31 C-69.37719196 30.26258366 -69.37719196 30.26258366 -66 29 C-65.67 28.34 -65.34 27.68 -65 27 C-63.66923011 26.65657551 -62.33568021 26.32380126 -61 26 C-60.34 25.34 -59.68 24.68 -59 24 C-58.34 24.33 -57.68 24.66 -57 25 C-56.05125 24.67 -55.1025 24.34 -54.125 24 C-51 23 -51 23 -48.9375 23.5625 C-46.82658504 24.25660746 -46.82658504 24.25660746 -44.4375 22.6875 C-43.633125 22.130625 -42.82875 21.57375 -42 21 C-41.01 20.34 -40.02 19.68 -39 19 C-38.505 18.505 -38.505 18.505 -38 18 C-37.34 17.34 -36.68 16.68 -36 16 C-33.375 16.375 -33.375 16.375 -31 17 C-30.505 15.515 -30.505 15.515 -30 14 C-28.865625 13.87625 -27.73125 13.7525 -26.5625 13.625 C-25.386875 13.41875 -24.21125 13.2125 -23 13 C-22.67 12.34 -22.34 11.68 -22 11 C-20.34608154 10.60828247 -18.67654729 10.27942455 -17 10 C-16.01 9.67 -15.02 9.34 -14 9 C-14.495 7.515 -14.495 7.515 -15 6 C-13.68 6 -12.36 6 -11 6 C-7.82450969 5.27506864 -7.82450969 5.27506864 -5 4 C-4.67 3.01 -4.34 2.02 -4 1 C-1 0 -1 0 0 0 Z M12 24 C14 25 14 25 14 25 Z " fill="#8C8AD9" transform="translate(353,343)"/>
<path d="M0 0 C3.993086 1.46609615 7.47510153 3.38575332 11.125 5.5625 C38.27071888 21.30141539 69.27753163 31.93116069 100.90625 32.23828125 C102.15766281 32.25283607 102.15766281 32.25283607 103.43435669 32.26768494 C106.12295386 32.29252824 108.81129962 32.30520204 111.5 32.3125 C112.41706726 32.31511841 113.33413452 32.31773682 114.2789917 32.32043457 C128.90891506 32.3249108 142.71558461 31.39160988 157 28 C157.70044434 27.84515137 158.40088867 27.69030273 159.12255859 27.53076172 C180.7194288 22.72850272 202.12977902 13.52283231 220.62890625 1.43359375 C223 0 223 0 225 0 C224.49377861 9.44946597 220.23033335 15.50864429 213.49609375 21.98828125 C208.44200338 26.06160917 202.71797307 28.98163879 197 32 C196.16597656 32.474375 195.33195313 32.94875 194.47265625 33.4375 C160.62739084 51.95114945 110.78043137 52.57319553 74 46 C73.14615723 45.85546387 72.29231445 45.71092773 71.41259766 45.56201172 C45.85827623 41.19577667 19.54231972 33.20212809 3 12 C0.35479785 7.78420908 -0.35449391 4.9629148 0 0 Z " fill="#FDB079" transform="translate(155,390)"/>
<path d="M0 0 C0.62036133 0.34111816 1.24072266 0.68223633 1.87988281 1.03369141 C17.00482181 9.47707259 30.59099518 19.94230772 43 32 C43.54285645 32.52239258 44.08571289 33.04478516 44.64501953 33.58300781 C61.18937808 49.5532719 61.18937808 49.5532719 64 55 C63.74516659 58.25940155 63.03242245 60.90273266 62 64 C62.66 64.33 63.32 64.66 64 65 C65.6875 67.875 65.6875 67.875 67 71 C66.67 71.99 66.34 72.98 66 74 C66.66 74 67.32 74 68 74 C68.12375 74.61875 68.2475 75.2375 68.375 75.875 C68.87197356 78.19120832 68.87197356 78.19120832 71 80 C72.66513866 84.71789286 71.33813874 88.35587144 70 93 C69.34 93 68.68 93 68 93 C67.74943848 92.4423999 67.49887695 91.8847998 67.24072266 91.31030273 C59.88580913 75.0744562 51.66715512 60.56846929 40 47 C39.18015625 46.04609375 38.3603125 45.0921875 37.515625 44.109375 C31.40009434 37.15082607 24.766951 31.14035837 17.58349609 25.30712891 C16.08824579 24.07284427 14.63056144 22.79345455 13.17578125 21.51171875 C-8.08421147 2.92034437 -33.51512257 -8.28628697 -61 -14 C-62.15012573 -14.27034058 -62.15012573 -14.27034058 -63.32348633 -14.54614258 C-72.26904347 -16.46604351 -81.2081774 -16.35307779 -90.3125 -16.3125 C-91.57764435 -16.30976578 -91.57764435 -16.30976578 -92.86834717 -16.30697632 C-115.22050364 -16.22563505 -138.3547807 -14.26977608 -159 -5 C-161.12092317 -4.17691668 -163.24590113 -3.36419772 -165.375 -2.5625 C-169.29448588 -1.07300537 -173.13629776 0.48125107 -176.9375 2.25 C-180.26929548 3.77451158 -183.32574876 4.62315372 -187 5 C-187.66 4.01 -188.32 3.02 -189 2 C-189.33 2.66 -189.66 3.32 -190 4 C-190.66 3.34 -191.32 2.68 -192 2 C-191.67680469 -1.3396849 -190.45681451 -2.82649899 -188 -5 C-131.69723512 -36.55640485 -55.00944532 -30.25949926 0 0 Z " fill="#9EB2E9" transform="translate(366,41)"/>
<path d="M0 0 C17.21349331 8.516763 33.7804852 22.61729596 40.4375 41 C43.72879575 52.88838722 43.36071819 66.44928814 39 78 C37.39658445 78.33692785 35.79223445 78.66941093 34.1875 79 C32.84751953 79.2784375 32.84751953 79.2784375 31.48046875 79.5625 C29 80 29 80 26 80 C24.33157466 80.32441604 22.66519519 80.65939189 21 81 C18.66761888 81.33993214 16.3343631 81.67395633 14 82 C13.91363281 81.05640625 13.82726562 80.1128125 13.73828125 79.140625 C12.30450262 66.03930832 8.36999864 51.89583616 -1.5859375 42.50390625 C-3.4962033 40.47226997 -4.15864012 38.65939502 -5 36 C-4.87573242 33.31201172 -4.87573242 33.31201172 -4.35546875 30.4296875 C-4.17306641 29.3675 -3.99066406 28.3053125 -3.80273438 27.2109375 C-3.59970703 26.11007812 -3.39667969 25.00921875 -3.1875 23.875 C-1.77459863 15.92088858 -0.5853485 8.06189104 0 0 Z " fill="#6A64C5" transform="translate(339,266)"/>
<path d="M0 0 C5.12423102 2.96066681 7.40744262 6.11852014 9.21484375 11.80078125 C10.99299435 20.72193 10.80223712 30.25131952 6.10546875 38.16796875 C3.41787637 41.77827677 0.91089021 43.68074493 -3.328125 45.09375 C-8.35325573 45.62134548 -12.20863012 45.66367466 -16.765625 43.34375 C-19.00644869 41.37619749 -20.72108068 39.59359673 -22.328125 37.09375 C-24.20693372 37.14143403 -24.20693372 37.14143403 -26.328125 38.09375 C-28.59137746 41.07138043 -28.59137746 41.07138043 -30.328125 44.09375 C-31.400625 43.784375 -32.473125 43.475 -33.578125 43.15625 C-36.15678722 42.42562904 -38.72324602 41.71892096 -41.328125 41.09375 C-41.328125 40.43375 -41.328125 39.77375 -41.328125 39.09375 C-42.441875 38.97 -43.555625 38.84625 -44.703125 38.71875 C-48.328125 38.09375 -48.328125 38.09375 -50.328125 36.09375 C-51.78322473 35.33720858 -53.26634602 34.63345496 -54.765625 33.96875 C-55.54808594 33.61554688 -56.33054688 33.26234375 -57.13671875 32.8984375 C-59.40840247 31.92140145 -59.40840247 31.92140145 -62.328125 32.09375 C-62.988125 31.43375 -63.648125 30.77375 -64.328125 30.09375 C-65.318125 29.76375 -66.308125 29.43375 -67.328125 29.09375 C-67.781875 28.619375 -68.235625 28.145 -68.703125 27.65625 C-71.92691774 24.55644929 -74.94328887 24.09375 -79.328125 24.09375 C-79.328125 23.43375 -79.328125 22.77375 -79.328125 22.09375 C-81.308125 21.43375 -83.288125 20.77375 -85.328125 20.09375 C-85.328125 19.43375 -85.328125 18.77375 -85.328125 18.09375 C-86.648125 18.42375 -87.968125 18.75375 -89.328125 19.09375 C-88.4201088 17.96175647 -87.50128674 16.83842637 -86.578125 15.71875 C-85.81242188 14.77902344 -85.81242188 14.77902344 -85.03125 13.8203125 C-83.24613019 12.01062682 -81.64862856 11.09257545 -79.328125 10.09375 C-78.92464844 10.51785156 -78.52117187 10.94195312 -78.10546875 11.37890625 C-69.1229747 20.0562625 -55.96259079 26.24627452 -43.3671875 26.046875 C-37.19558305 25.64268932 -31.32149238 24.59209185 -25.328125 23.09375 C-25.30234375 22.3925 -25.2765625 21.69125 -25.25 20.96875 C-24.78126552 13.12810054 -23.58553363 7.19226065 -17.765625 1.65625 C-12.47773822 -1.73342101 -5.8725232 -2.28594863 0 0 Z " fill="#D58532" transform="translate(310.328125,151.90625)"/>
<path d="M0 0 C1.32 0.33 2.64 0.66 4 1 C3.79166496 2.46145475 3.55664338 3.91909908 3.3125 5.375 C3.18488281 6.18710938 3.05726563 6.99921875 2.92578125 7.8359375 C0.45611598 16.27656563 -4.22063288 22.97725686 -9.75 29.6875 C-24.71913599 48.45568057 -32.06227721 67.85966948 -38.18603516 90.95068359 C-38.91958672 93.69875168 -39.67994596 96.43755554 -40.44921875 99.17578125 C-44.03669014 112.28738515 -45.66067656 125.49001259 -47 139 C-52.41200695 134.95682217 -55.55629381 131.04850067 -58.375 124.9375 C-58.71660156 124.24333984 -59.05820313 123.54917969 -59.41015625 122.83398438 C-65.31333665 110.54930263 -64.15493846 95.72449904 -60 83 C-58.48548697 79.24977725 -56.82872374 75.60685038 -55 72 C-54.34 72 -53.68 72 -53 72 C-53 71.01 -53 70.02 -53 69 C-52.34 69 -51.68 69 -51 69 C-50.34 67.02 -49.68 65.04 -49 63 C-48.34 63 -47.68 63 -47 63 C-46.731875 62.2575 -46.46375 61.515 -46.1875 60.75 C-45.04723249 58.10938051 -43.90619694 56.14447156 -42 54 C-41.34 54 -40.68 54 -40 54 C-39.6596875 52.9171875 -39.6596875 52.9171875 -39.3125 51.8125 C-38.0514356 49.11021914 -36.75151654 47.57877363 -34.60546875 45.55859375 C-25.17266307 36.40119846 -17.02310768 25.83725889 -9.1875 15.3125 C-8.73133301 14.70704346 -8.27516602 14.10158691 -7.80517578 13.4777832 C-4.65335126 9.19034923 -2.27570146 4.81133153 0 0 Z " fill="#9B57C1" transform="translate(229,131)"/>
<path d="M0 0 C0.33 0 0.66 0 1 0 C1.20625 1.27875 1.4125 2.5575 1.625 3.875 C3.57955209 12.44806985 8.09384776 19.30652959 15.26171875 24.40234375 C26.35563762 30.87511524 37.55647543 33.2504044 50.25 34.37890625 C65.14338537 35.75234107 77.47786682 39.73070748 91 46.0625 C106.9291243 53.41844303 120.7041009 55.30887352 138.11889648 55.64550781 C151.58821629 55.92166457 164.89129403 56.49717642 177 63 C177 63.33 177 63.66 177 64 C148.10253053 68.76287932 114.88044594 69.23246205 87.87255859 57.03955078 C76.57386275 51.9482965 66.29386623 48.53641478 54 47 C14.33067016 41.82013266 14.33067016 41.82013266 1 26 C-4.55237127 18.46843419 -4.55237127 18.46843419 -5 14 C-4.2774105 11.49502305 -3.50356446 9.16777397 -2.5625 6.75 C-2.31951172 6.1003125 -2.07652344 5.450625 -1.82617188 4.78125 C-1.22714006 3.18383183 -0.61485679 1.59139406 0 0 Z " fill="#C98351" transform="translate(145,404)"/>
<path d="M0 0 C2 1 2 1 2.97387695 3.68041992 C3.47600708 5.43769409 3.47600708 5.43769409 3.98828125 7.23046875 C4.36876142 8.52159618 4.74963373 9.81260811 5.13085938 11.10351562 C5.72207091 13.13817293 6.30864791 15.17393509 6.88745117 17.2121582 C9.84193828 28.8074133 9.84193828 28.8074133 17.84594727 37.17114258 C19.90489046 38.31302561 21.98777874 39.325641 24.125 40.3125 C24.84042969 40.65861328 25.55585938 41.00472656 26.29296875 41.36132812 C29.16108729 42.73641673 31.98033985 43.99344662 35 45 C34.67 45.99 34.34 46.98 34 48 C31.42412656 49.26735326 28.91051185 50.38125806 26.25 51.4375 C17.76021834 54.5423355 17.76021834 54.5423355 11.93701172 61.07177734 C8.89701622 68.36921761 6.74010111 76.01706636 4.46875 83.58007812 C4.17742187 84.52431641 3.88609375 85.46855469 3.5859375 86.44140625 C3.3286084 87.29420166 3.0712793 88.14699707 2.80615234 89.02563477 C2 91 2 91 0 92 C-0.64353028 90.06940917 -1.2869605 88.13878493 -1.92993164 86.20800781 C-2.47944608 84.56093684 -3.03073404 82.91445658 -3.58374023 81.26855469 C-4.80166989 77.63722098 -5.99752025 74.00814403 -7.11328125 70.34375 C-9.2538219 63.36717308 -11.11065233 58.24385443 -17.7421875 54.41796875 C-23.04844599 51.69867668 -28.48212533 49.25731236 -34 47 C-31.95135606 44.77546635 -30.12319579 43.39842289 -27.3828125 42.1328125 C-26.34833984 41.63974609 -26.34833984 41.63974609 -25.29296875 41.13671875 C-23.85706139 40.46662865 -22.41957406 39.799913 -20.98046875 39.13671875 C-15.5508005 36.53816244 -11.32472258 34.18757691 -8.90136719 28.35644531 C-7.78349135 25.11307405 -6.78109382 21.85345327 -5.8125 18.5625 C-5.29913086 16.88317383 -5.29913086 16.88317383 -4.77539062 15.16992188 C-4.1369619 13.08108226 -3.50507273 10.99022376 -2.88208008 8.89672852 C-1.97331261 5.91235929 -0.99848286 2.95543254 0 0 Z " fill="#FED44F" transform="translate(447,11)"/>
<path d="M0 0 C0.99 0.33 1.98 0.66 3 1 C3.33333333 2.33333333 3.66666667 3.66666667 4 5 C4.99 5.33 5.98 5.66 7 6 C14.00108743 14.84260569 20.90521886 27.34820858 20 39 C18 41 18 41 16 42 C14.64691687 43.31328657 13.31129922 44.64499081 12 46 C10.515 45.505 10.515 45.505 9 45 C8.505 45.99 8.505 45.99 8 47 C7.34 46.67 6.68 46.34 6 46 C6 46.66 6 47.32 6 48 C5.34 48 4.68 48 4 48 C3.505 48.99 3.505 48.99 3 50 C1.00882592 50.69258229 -0.9921136 51.35747635 -3 52 C-3.99 52.66 -4.98 53.32 -6 54 C-7.32 54 -8.64 54 -10 54 C-10.495 54.99 -10.495 54.99 -11 56 C-12.65 56 -14.3 56 -16 56 C-16.20625 56.61875 -16.4125 57.2375 -16.625 57.875 C-18.56307869 60.87021253 -20.63160418 61.05684917 -24 62 C-25.051875 62.5878125 -25.051875 62.5878125 -26.125 63.1875 C-28.49426975 64.21418356 -29.57078528 63.64779059 -32 63 C-32.99 63.99 -32.99 63.99 -34 65 C-35.485 64.505 -35.485 64.505 -37 64 C-37.33 64.66 -37.66 65.32 -38 66 C-38.495 65.01 -38.495 65.01 -39 64 C-39.99 64.99 -40.98 65.98 -42 67 C-43.485 66.505 -43.485 66.505 -45 66 C-45.33 66.99 -45.66 67.98 -46 69 C-47.99609375 69.765625 -47.99609375 69.765625 -50.4375 70.25 C-51.24058594 70.42015625 -52.04367187 70.5903125 -52.87109375 70.765625 C-55 71 -55 71 -57 70 C-57.99 70.99 -57.99 70.99 -59 72 C-60.485 72.495 -60.485 72.495 -62 73 C-61.02385043 69.31232383 -59.59639811 67.49564742 -56.6875 65.1875 C-50.18904554 59.88042886 -46.882256 53.32217604 -46 45 C-45.94754213 42.33033707 -45.96914054 39.67074625 -46 37 C-41.459817 36.71517495 -36.91834903 36.4782865 -32.375 36.25 C-31.08980469 36.16878906 -29.80460937 36.08757812 -28.48046875 36.00390625 C-17.19094772 35.4774519 -17.19094772 35.4774519 -12 40 C-7.3361007 40.42060563 -7.3361007 40.42060563 -3 39 C-2.88679144 33.91696314 -2.88679144 33.91696314 -4 29 C-4.22953074 24.09745888 -3.68308607 19.82901205 -2.5625 15.0625 C-1.42434115 10.03205264 -0.51291142 5.12911419 0 0 Z " fill="#8F7BD2" transform="translate(333,304)"/>
<path d="M0 0 C0.33 0.66 0.66 1.32 1 2 C-9.64474543 20.03345109 -28.18248976 28.46359284 -47.609375 34.03515625 C-69.1956403 39.10180149 -91.04374029 35.7936337 -111.2109375 27.015625 C-116.24947775 25.18086244 -121.3565482 24.95874549 -126.66796875 24.67578125 C-143.41266631 23.78317659 -159.45817579 21.89844077 -174 13 C-174 12.67 -174 12.34 -174 12 C-124.99942009 11.45391553 -124.99942009 11.45391553 -101 17 C-99.38587498 17.35107219 -97.77126072 17.69990004 -96.15625 18.046875 C-83.36793417 20.81603291 -83.36793417 20.81603291 -81 22 C-68.0134702 24.25731527 -54.59200437 23.81748549 -42 20 C-41.12706299 19.73896484 -40.25412598 19.47792969 -39.35473633 19.20898438 C-31.85364153 16.85579526 -25.09567019 13.72865832 -18.1875 10 C-16.71120117 9.21882813 -16.71120117 9.21882813 -15.20507812 8.421875 C-10.08451988 5.7019004 -5.01504871 2.90970748 0 0 Z " fill="#CA8351" transform="translate(363,466)"/>
<path d="M0 0 C3.4295887 1.4965478 6.70932719 2.91773411 10.3125 3.9375 C13 5 13 5 13.9375 7.0625 C14.288125 7.701875 14.63875 8.34125 15 9 C17.32249342 9.40197001 19.65885633 9.72686657 22 10 C24.03273074 10.93166826 26.03384339 11.9349985 28 13 C30.32671865 14.01529541 32.6603447 15.01488198 35 16 C40.35703879 18.28170171 45.68378415 20.62518249 51 23 C50.16596873 28.6992137 48.58081564 34.05255933 46.9375 39.5625 C46.08016745 42.70605267 45.4713981 45.77877963 45 49 C43.70590711 48.38003922 42.41480327 47.75383647 41.125 47.125 C40.40570313 46.77695313 39.68640625 46.42890625 38.9453125 46.0703125 C37 45 37 45 35 43 C34.01 43 33.02 43 32 43 C31.5875 42.54625 31.175 42.0925 30.75 41.625 C28.18283167 39.24120084 25.35872987 38.8956613 22 38 C19.65429915 37.02936517 17.31979381 36.03101947 15 35 C14.113125 34.71125 13.22625 34.4225 12.3125 34.125 C10 33 10 33 8.125 30.5625 C5.44201307 27.32713341 2.93454087 26.35920503 -1 25 C-1.99 25 -2.98 25 -4 25 C-4.66 24.34 -5.32 23.68 -6 23 C-6.825 22.835 -7.65 22.67 -8.5 22.5 C-11 22 -11 22 -13 20 C-15.49092811 18.75453595 -16.41080733 19.2232422 -19 20 C-16.92007253 12.53673083 -13.69226096 3.06937371 -6.921875 -1.359375 C-4.04876468 -2.31707844 -2.68431395 -1.31094402 0 0 Z " fill="#DDB38A" transform="translate(228,172)"/>
<path d="M0 0 C0.66 0.66 1.32 1.32 2 2 C0.625 3.5 0.625 3.5 -1 5 C-1.66 5 -2.32 5 -3 5 C-3 5.66 -3 6.32 -3 7 C-3.66 7 -4.32 7 -5 7 C-5.38671875 7.86625 -5.38671875 7.86625 -5.78125 8.75 C-7.50935148 11.94034119 -9.89608267 14.34490324 -12.34375 17 C-13.93894694 18.92627555 -14.98432918 20.72489737 -16 23 C-16.66 23 -17.32 23 -18 23 C-18.04125 23.680625 -18.0825 24.36125 -18.125 25.0625 C-19.35298961 29.18503653 -21.84923793 32.09996171 -25 35 C-25.66 35 -26.32 35 -27 35 C-27.33 35.66 -27.66 36.32 -28 37 C-28 36.34 -28 35.68 -28 35 C-28.61875 35.185625 -29.2375 35.37125 -29.875 35.5625 C-32 36 -32 36 -34 35 C-34.33 35.66 -34.66 36.32 -35 37 C-39.13921544 38.85642924 -43.49950772 40.03962123 -48 40.5625 C-48.99 40.706875 -49.98 40.85125 -51 41 C-51.33 41.66 -51.66 42.32 -52 43 C-54.5625 43.625 -54.5625 43.625 -57 44 C-57.43496578 32.93253744 -56.22636903 22.82704462 -54 12 C-53.24074219 12.18175781 -52.48148437 12.36351562 -51.69921875 12.55078125 C-48.24588445 13.12550404 -46.19402812 12.34858965 -43 11 C-42.34 10.34 -41.68 9.68 -41 9 C-39.00661779 8.62913819 -37.00487668 8.30262289 -35 8 C-32.66501142 7.33915417 -30.33183607 6.67188497 -28 6 C-24.0805191 5.06903896 -20.15400378 4.20515623 -16.1875 3.5 C-13.87477917 2.9713781 -12.10055294 2.08415636 -10 1 C-6.64790203 -0.11736599 -3.51993823 -0.22956119 0 0 Z " fill="#CC9FDC" transform="translate(154,157)"/>
<path d="M0 0 C-1.32 0.66 -2.64 1.32 -4 2 C-4 2.66 -4 3.32 -4 4 C-3.01 4.495 -3.01 4.495 -2 5 C-2 5.66 -2 6.32 -2 7 C-3.0818457 6.78778809 -4.16369141 6.57557617 -5.27832031 6.35693359 C-16.51711993 4.25648217 -27.33208698 3.51085848 -38.75 3.625 C-39.57594666 3.62932037 -40.40189331 3.63364075 -41.25286865 3.63809204 C-63.45857929 3.77379628 -86.49925424 5.79509305 -107 15 C-109.12092317 15.82308332 -111.24590113 16.63580228 -113.375 17.4375 C-117.29448588 18.92699463 -121.13629776 20.48125107 -124.9375 22.25 C-128.26929548 23.77451158 -131.32574876 24.62315372 -135 25 C-135.66 24.01 -136.32 23.02 -137 22 C-137.33 22.66 -137.66 23.32 -138 24 C-138.66 23.34 -139.32 22.68 -140 22 C-139.67680469 18.6603151 -138.45681451 17.17350101 -136 15 C-96.57263507 -7.09813128 -43.18931109 -10.26192309 0 0 Z " fill="#A797DD" transform="translate(314,21)"/>
<path d="M0 0 C2.0625 0.4375 2.0625 0.4375 4 1 C0.77081021 4.47697415 -2.86240919 7.13280023 -6.75 9.8125 C-10.90397668 12.692405 -14.71229139 15.55388399 -18.3125 19.125 C-21.18962057 21.78462765 -22.95125669 22.39987317 -26.875 22.375 C-27.61492187 22.30023438 -28.35484375 22.22546875 -29.1171875 22.1484375 C-31.08998116 21.82993762 -31.08998116 21.82993762 -33 23 C-33.66 22.67 -34.32 22.34 -35 22 C-35.33 22.66 -35.66 23.32 -36 24 C-40.47540984 25.26229508 -40.47540984 25.26229508 -43 24 C-43.33 24.66 -43.66 25.32 -44 26 C-46.66537314 26.73527535 -49.30791712 27.38466677 -52 28 C-57.38990839 29.48687128 -62.67984856 31.16079629 -67.9375 33.0625 C-71.28184118 34.08627791 -74.5319827 34.58383792 -78 35 C-77.57200914 26.72550999 -74.95555804 19.66700112 -72 12 C-71.34 12.66 -70.68 13.32 -70 14 C-69.484375 13.71125 -68.96875 13.4225 -68.4375 13.125 C-65.37580603 11.71191048 -62.24425718 10.91066868 -59 10 C-58.0925 9.62875 -57.185 9.2575 -56.25 8.875 C-54 8 -54 8 -51 8 C-50.67 8.33 -50.34 8.66 -50 9 C-49.34 8.34 -48.68 7.68 -48 7 C-46.205625 7.804375 -46.205625 7.804375 -44.375 8.625 C-41.25072009 9.79660497 -40.24124376 10.05307363 -36.875 9.3125 C-35.92625 8.879375 -34.9775 8.44625 -34 8 C-29.01395076 6.30474326 -24.15700153 5.02989681 -19 4 C-18.20980469 3.835 -17.41960937 3.67 -16.60546875 3.5 C-12.55643629 2.66272027 -8.54756573 1.90320889 -4.4375 1.4375 C-1.17456501 1.37862274 -1.17456501 1.37862274 0 0 Z " fill="#D8B4E4" transform="translate(179,136)"/>
<path d="M0 0 C0.66 0 1.32 0 2 0 C2.21092285 0.70084717 2.4218457 1.40169434 2.63916016 2.1237793 C3.61356568 5.31848652 4.61887214 8.502648 5.625 11.6875 C5.95628906 12.79029297 6.28757812 13.89308594 6.62890625 15.02929688 C9.2383911 23.17778257 11.36908542 26.55153994 18.9921875 30.58203125 C19.94351563 30.98808594 20.89484375 31.39414063 21.875 31.8125 C22.84179688 32.23144531 23.80859375 32.65039062 24.8046875 33.08203125 C25.52914062 33.38496094 26.25359375 33.68789062 27 34 C27 34.66 27 35.32 27 36 C24.71070947 37.17154293 22.41881638 38.33738074 20.125 39.5 C19.47402344 39.83386719 18.82304687 40.16773438 18.15234375 40.51171875 C13.2265625 43 13.2265625 43 11 43 C9.6031375 46.39582091 8.37903259 49.79973012 7.2734375 53.30078125 C6.9640625 54.27724609 6.6546875 55.25371094 6.3359375 56.25976562 C6.01882813 57.26716797 5.70171875 58.27457031 5.375 59.3125 C5.05015625 60.33923828 4.7253125 61.36597656 4.390625 62.42382812 C3.59206362 64.94869132 2.7952465 67.47409116 2 70 C1.34 70 0.68 70 0 70 C-0.1858667 69.3294458 -0.3717334 68.6588916 -0.56323242 67.96801758 C-1.42096527 64.91110527 -2.30392084 61.86203718 -3.1875 58.8125 C-3.47947266 57.75740234 -3.77144531 56.70230469 -4.07226562 55.61523438 C-6.05604774 48.85331039 -7.89186343 44.57536592 -14.0625 40.70703125 C-15.0215625 40.26423828 -15.0215625 40.26423828 -16 39.8125 C-16.680625 39.49410156 -17.36125 39.17570312 -18.0625 38.84765625 C-20.35581904 37.84432917 -22.65598452 36.87900581 -25 36 C-25 35.34 -25 34.68 -25 34 C-23.55367188 33.31164062 -23.55367188 33.31164062 -22.078125 32.609375 C-20.80187267 31.99001725 -19.52584263 31.37020128 -18.25 30.75 C-17.61578125 30.44964844 -16.9815625 30.14929688 -16.328125 29.83984375 C-11.58629323 27.51832195 -8.02629659 25.40078464 -5.90332031 20.43457031 C-5.63100586 19.49194336 -5.35869141 18.54931641 -5.078125 17.578125 C-4.77519531 16.55332031 -4.47226562 15.52851562 -4.16015625 14.47265625 C-3.85980469 13.40917969 -3.55945313 12.34570312 -3.25 11.25 C-2.93417969 10.17105469 -2.61835938 9.09210938 -2.29296875 7.98046875 C-1.51702392 5.32344553 -0.75320906 2.66354031 0 0 Z " fill="#FED44F" transform="translate(490,76)"/>
<path d="M0 0 C0.99 0.495 0.99 0.495 2 1 C1.67 2.32 1.34 3.64 1 5 C1.5775 5.144375 2.155 5.28875 2.75 5.4375 C4.83333333 5.95833333 6.91666667 6.47916667 9 7 C6.35589726 10.05519999 3.21387391 11.64955198 -0.3125 13.5625 C-21.10025071 25.17025861 -40.92634493 41.74641488 -55.47265625 60.64453125 C-57.50920775 62.4519056 -59.35572929 62.53957587 -62 63 C-63.35368596 64.31266518 -64.68799596 65.64567325 -66 67 C-67.33106622 67.34227417 -68.66400079 67.67751743 -70 68 C-70.33 68.99 -70.66 69.98 -71 71 C-72.77734375 72.60546875 -72.77734375 72.60546875 -74.9375 74.1875 C-75.64777344 74.71730469 -76.35804687 75.24710937 -77.08984375 75.79296875 C-79 77 -79 77 -81 77 C-79.49783207 72.61662473 -77.14586124 69.08662888 -74.4375 65.375 C-73.99059814 64.75818359 -73.54369629 64.14136719 -73.08325195 63.50585938 C-66.9938699 55.17268061 -60.41857575 47.34631263 -53.4375 39.75 C-52.91953857 39.18345703 -52.40157715 38.61691406 -51.86791992 38.03320312 C-39.03549403 24.258487 -23.32234744 13.22155824 -7 4 C-6.36868164 3.61473145 -5.73736328 3.22946289 -5.08691406 2.83251953 C-3.42509288 1.83002183 -1.71529444 0.90797371 0 0 Z M-1 5 C0 7 0 7 0 7 Z " fill="#A788D7" transform="translate(174,38)"/>
<path d="M0 0 C0.66 0 1.32 0 2 0 C2.474375 1.175625 2.94875 2.35125 3.4375 3.5625 C7.53453293 11.65628883 14.94145654 15.41221472 23.2265625 18.2734375 C27.8340929 19.48048067 32.34752586 20.04049624 37.1015625 20.0703125 C51.99317761 20.18576416 65.82206832 23.99183405 79 31 C79 31.33 79 31.66 79 32 C76.85424137 32.02747059 74.70837559 32.04660463 72.5625 32.0625 C71.36753906 32.07410156 70.17257813 32.08570313 68.94140625 32.09765625 C66.13725501 32.02817778 63.5732981 31.85361058 60.8125 31.5 C55.02550203 30.80313637 49.25815996 30.89188904 43.4375 30.9375 C41.78137695 30.94426758 41.78137695 30.94426758 40.09179688 30.95117188 C37.394473 30.9628486 34.69726653 30.97922475 32 31 C36.3935278 40.24471474 42.85183239 45.94699635 50.83984375 52.21484375 C51.55269531 52.80394531 52.26554687 53.39304687 53 54 C53 54.33 53 54.66 53 55 C44.70534576 56.13108921 37.77910133 51.80577883 31.28515625 46.984375 C25.21417945 41.78335327 20.17700287 35.82554939 16 29 C16 28.34 16 27.68 16 27 C15.26910156 26.72929687 14.53820312 26.45859375 13.78515625 26.1796875 C8.27227807 23.84463952 1.45672995 19.95965601 -2 15 C-2.61697478 9.65288525 -1.43306992 5.1053116 0 0 Z " fill="#C98351" transform="translate(134,437)"/>
<path d="M0 0 C0.66 0 1.32 0 2 0 C3.6905882 5.89348477 4.35219429 11.19151668 4.3125 17.3125 C4.31121094 18.14048096 4.30992187 18.96846191 4.30859375 19.8215332 C4.20870406 26.21135176 3.26833442 31.99161419 1 38 C-0.60341555 38.33692785 -2.20776555 38.66941093 -3.8125 39 C-4.70582031 39.185625 -5.59914063 39.37125 -6.51953125 39.5625 C-9 40 -9 40 -12 40 C-13.66842534 40.32441604 -15.33480481 40.65939189 -17 41 C-19.33238112 41.33993214 -21.6656369 41.67395633 -24 42 C-24.12955078 40.58460938 -24.12955078 40.58460938 -24.26171875 39.140625 C-25.2306719 30.28670445 -27.18785635 23.12903107 -31 15 C-31.33 14.01 -31.66 13.02 -32 12 C-31.06027344 12.03480469 -31.06027344 12.03480469 -30.1015625 12.0703125 C-28.87566406 12.09738281 -28.87566406 12.09738281 -27.625 12.125 C-26.40683594 12.15980469 -26.40683594 12.15980469 -25.1640625 12.1953125 C-22.78657757 12.21370051 -22.78657757 12.21370051 -21 10 C-20.3574765 7.93125966 -20.3574765 7.93125966 -20 6 C-19.236875 6.165 -18.47375 6.33 -17.6875 6.5 C-14.96403764 7.09145396 -14.96403764 7.09145396 -12 7 C-12 7.66 -12 8.32 -12 9 C-8.6341541 8.43902568 -6.01888813 7.56149386 -3 6 C-2.34 6 -1.68 6 -1 6 C-0.67 4.02 -0.34 2.04 0 0 Z " fill="#6D6ECB" transform="translate(377,306)"/>
<path d="M0 0 C0.99 0.825 1.98 1.65 3 2.5 C16.19942787 12.36434111 29.55758491 17.25401073 46 15 C47.175625 14.7525 48.35125 14.505 49.5625 14.25 C50.7690625 14.12625 50.7690625 14.12625 52 14 C52.45246094 14.47953125 52.90492188 14.9590625 53.37109375 15.453125 C55.46155758 17.43831367 56.66221064 17.38648843 59.5 17.5 C63.2753403 17.65101361 64.44524623 18.27445489 67 21 C67.969375 21.144375 68.93875 21.28875 69.9375 21.4375 C73.62782107 22.11531407 74.41285018 23.41285018 77 26 C80.14481791 26.80315654 80.14481791 26.80315654 83 27 C83 27.66 83 28.32 83 29 C83.66 29.33 84.32 29.66 85 30 C79.76645414 34.38486275 76.21588554 35.35360597 69.5078125 35.28515625 C64.80318532 34.75020643 62.06115798 32.27338958 59.125 28.75 C58.75375 28.1725 58.3825 27.595 58 27 C56.12119128 27.04768403 56.12119128 27.04768403 54 28 C51.73674754 30.97763043 51.73674754 30.97763043 50 34 C48.9275 33.690625 47.855 33.38125 46.75 33.0625 C44.17133778 32.33187904 41.60487898 31.62517096 39 31 C39 30.34 39 29.68 39 29 C37.329375 28.814375 37.329375 28.814375 35.625 28.625 C32 28 32 28 30 26 C28.54490027 25.24345858 27.06177898 24.53970496 25.5625 23.875 C24.78003906 23.52179688 23.99757812 23.16859375 23.19140625 22.8046875 C20.91972253 21.82765145 20.91972253 21.82765145 18 22 C17.34 21.34 16.68 20.68 16 20 C15.01 19.67 14.02 19.34 13 19 C12.54625 18.525625 12.0925 18.05125 11.625 17.5625 C8.40120726 14.46269929 5.38483613 14 1 14 C1 13.34 1 12.68 1 12 C-0.98 11.34 -2.96 10.68 -5 10 C-5 9.34 -5 8.68 -5 8 C-6.32 8.33 -7.64 8.66 -9 9 C-8.06725891 7.87105124 -7.12859878 6.74699124 -6.1875 5.625 C-5.66542969 4.99851563 -5.14335937 4.37203125 -4.60546875 3.7265625 C-3 2 -3 2 0 0 Z " fill="#D89344" transform="translate(230,162)"/>
<path d="M0 0 C1.3303125 0.56267578 1.3303125 0.56267578 2.6875 1.13671875 C3.533125 1.50410156 4.37875 1.87148437 5.25 2.25 C5.91 2.52457031 6.57 2.79914063 7.25 3.08203125 C8.92641183 3.78178351 10.58866158 4.51517724 12.25 5.25 C13.3225 5.70375 14.395 6.1575 15.5 6.625 C18.25 8.25 18.25 8.25 19.75 10.875 C21.0662016 13.56139848 21.0662016 13.56139848 24.1875 14 C25.198125 14.0825 26.20875 14.165 27.25 14.25 C29.5 14.625 29.5 14.625 31.25 15.25 C31.91 16.24 32.57 17.23 33.25 18.25 C34.24 18.25 35.23 18.25 36.25 18.25 C37.93834592 18.85968047 39.60202764 19.53837557 41.25 20.25 C42.405 20.745 43.56 21.24 44.75 21.75 C45.905 22.245 47.06 22.74 48.25 23.25 C49.9142135 23.92276716 51.57986582 24.59206835 53.25 25.25 C54.09888195 30.62625234 54.2524305 34.90370398 53.25 40.25 C50.55646447 40.25 48.76578949 40.11480264 46.25 39.25 C45.79625 38.775625 45.3425 38.30125 44.875 37.8125 C42.03029486 35.0772066 38.37526142 34.43318209 34.5625 33.8125 C31.82187413 33.14586127 31.21231726 32.21231726 29.25 30.25 C25.76202512 28.45728609 25.76202512 28.45728609 22.25 27.25 C21.26 27.745 21.26 27.745 20.25 28.25 C19.93546875 27.7446875 19.6209375 27.239375 19.296875 26.71875 C18.86890625 26.0690625 18.4409375 25.419375 18 24.75 C17.58234375 24.1003125 17.1646875 23.450625 16.734375 22.78125 C16.24453125 22.2759375 15.7546875 21.770625 15.25 21.25 C13.93 21.25 12.61 21.25 11.25 21.25 C10.59 20.59 9.93 19.93 9.25 19.25 C8.26 19.25 7.27 19.25 6.25 19.25 C5.25 18.25 4.25 17.25 3.25 16.25 C1.24427359 15.43553891 1.24427359 15.43553891 -0.75 15.25 C-1.41 15.58 -2.07 15.91 -2.75 16.25 C-3.306875 15.610625 -3.86375 14.97125 -4.4375 14.3125 C-6.97066561 12.05319013 -8.43341424 11.61850953 -11.75 11.25 C-11.46640113 9.8108866 -11.17278601 8.37374482 -10.875 6.9375 C-10.71257812 6.13699219 -10.55015625 5.33648437 -10.3828125 4.51171875 C-9.75 2.25 -9.75 2.25 -7.75 -0.75 C-4.1408184 -1.95306053 -3.40014836 -1.45720644 0 0 Z " fill="#D8BCA9" transform="translate(217.75,191.75)"/>
<path d="M0 0 C3.18029652 4.77044479 5.54372678 9.20464915 6 15 C3.85265441 19.78190405 0.59939917 23.23745526 -3 27 C-3.78632813 27.88945312 -4.57265625 28.77890625 -5.3828125 29.6953125 C-17.19446279 42.44253905 -34.72049127 51.29182052 -52.25976562 52.10473633 C-54.77857724 52.16981735 -57.29286235 52.18987411 -59.8125 52.1875 C-60.69526611 52.18669434 -61.57803223 52.18588867 -62.48754883 52.18505859 C-68.56251959 52.12786921 -74.13917759 51.72942301 -80 50 C-80.33 49.34 -80.66 48.68 -81 48 C-79.20369141 47.85304688 -79.20369141 47.85304688 -77.37109375 47.703125 C-53.64205784 45.59807059 -26.6584248 38.31433183 -10 20 C-5.49837898 13.86691902 -2.57641096 7.12301853 0 0 Z " fill="#C98351" transform="translate(390,401)"/>
<path d="M0 0 C0.99 0.99 0.99 0.99 2 2 C0.61211198 3.30020011 -0.78569258 4.5898193 -2.1875 5.875 C-2.96480469 6.59429687 -3.74210937 7.31359375 -4.54296875 8.0546875 C-7.96241996 10.76197956 -10.62893896 12 -15 12 C-17.9163498 12.44379236 -20.80015688 12.95817237 -23.6875 13.5625 C-26 14 -26 14 -29 14 C-33.06273398 14.29406455 -36.9364513 14.64548377 -40.8125 15.9375 C-44.85311371 17.28437124 -48.89604074 17.88085062 -53.09765625 18.53515625 C-55.74899685 18.95979896 -58.37076365 19.45695635 -61 20 C-61.7425 20.144375 -62.485 20.28875 -63.25 20.4375 C-63.8275 20.623125 -64.405 20.80875 -65 21 C-65.33 21.66 -65.66 22.32 -66 23 C-66.66 22.67 -67.32 22.34 -68 22 C-68.33 22.66 -68.66 23.32 -69 24 C-69.66 24 -70.32 24 -71 24 C-74.692445 24.90387977 -78.3422512 25.96567515 -82 27 C-82.96164063 27.26296875 -83.92328125 27.5259375 -84.9140625 27.796875 C-85.80867188 28.04953125 -86.70328125 28.3021875 -87.625 28.5625 C-88.44226563 28.79066406 -89.25953125 29.01882812 -90.1015625 29.25390625 C-92.19481669 29.83224163 -92.19481669 29.83224163 -93 32 C-93.99 32 -94.98 32 -96 32 C-97.485 32.495 -97.485 32.495 -99 33 C-98.67 34.32 -98.34 35.64 -98 37 C-100.66666667 38.33333333 -103.33333333 39.66666667 -106 41 C-105.61330541 34.03949747 -103.36561591 29.0605925 -100 23 C-99.01 23.33 -98.02 23.66 -97 24 C-94.78763476 23.42949469 -94.78763476 23.42949469 -92.5 22.5 C-88.33333333 20.88888889 -88.33333333 20.88888889 -85 22 C-84.67 21.34 -84.34 20.68 -84 20 C-81.68060793 19.2863409 -79.34476551 18.6252708 -77 18 C-76.175 17.67 -75.35 17.34 -74.5 17 C-71.38711561 15.75484624 -68.23015184 14.90020625 -65 14 C-64.15308594 13.72671875 -63.30617187 13.4534375 -62.43359375 13.171875 C-61.54800781 12.88828125 -60.66242188 12.6046875 -59.75 12.3125 C-58.50476563 11.90451172 -58.50476563 11.90451172 -57.234375 11.48828125 C-55 11 -55 11 -52 12 C-50.32176819 11.3630069 -48.65777671 10.68847557 -47 10 C-44.10426676 9.23750542 -41.17858159 8.62268845 -38.25 8 C-37.10917969 7.7525 -37.10917969 7.7525 -35.9453125 7.5 C-34.41040705 7.16700356 -32.87516855 6.83553854 -31.33959961 6.50561523 C-28.18799327 5.82451571 -25.04083286 5.12399586 -21.89379883 4.42211914 C-18.29278575 3.61946971 -14.79753778 2.97714136 -11.125 2.5625 C-7.25243699 2.1060382 -3.71875616 1.1621113 0 0 Z " fill="#E3C9EB" transform="translate(214,110)"/>
<path d="M0 0 C3.4295887 1.4965478 6.70932719 2.91773411 10.3125 3.9375 C13 5 13 5 13.9375 7.0625 C14.288125 7.701875 14.63875 8.34125 15 9 C17.32249342 9.40197001 19.65885633 9.72686657 22 10 C24.03273074 10.93166826 26.03384339 11.9349985 28 13 C30.32671865 14.01529541 32.6603447 15.01488198 35 16 C40.35703879 18.28170171 45.68378415 20.62518249 51 23 C50.40075776 27.19469571 49.42500059 31.00999834 48 35 C47.195625 34.566875 46.39125 34.13375 45.5625 33.6875 C42.82006199 32.38845042 40.37159019 31.44681373 37.5 30.5625 C34.51480295 29.62429521 32.20601017 28.60540876 29.6875 26.75 C27.20865147 24.70467741 27.20865147 24.70467741 24.75 25.375 C24.1725 25.58125 23.595 25.7875 23 26 C22.34 25.34 21.68 24.68 21 24 C20.01 23.67 19.02 23.34 18 23 C18 22.34 18 21.68 18 21 C17.05125 20.87625 16.1025 20.7525 15.125 20.625 C12 20 12 20 10 18 C7.42938689 17.35232207 7.42938689 17.35232207 5 17 C5 16.34 5 15.68 5 15 C3.68 15 2.36 15 1 15 C0.34 14.34 -0.32 13.68 -1 13 C-1.99 13 -2.98 13 -4 13 C-4.66 12.34 -5.32 11.68 -6 11 C-6.99 11 -7.98 11 -9 11 C-9.66 10.34 -10.32 9.68 -11 9 C-11.99 8.34 -12.98 7.68 -14 7 C-13.07161713 5.68103535 -12.13194268 4.37001311 -11.1875 3.0625 C-10.66542969 2.33160156 -10.14335937 1.60070312 -9.60546875 0.84765625 C-6.34014577 -2.91024586 -4.04896721 -1.84043964 0 0 Z " fill="#D7A96C" transform="translate(228,172)"/>
<path d="M0 0 C0.66 0.66 1.32 1.32 2 2 C1.34 2 0.68 2 0 2 C0.48484276 6.64586892 0.48484276 6.64586892 2 11 C0.68 11.33 -0.64 11.66 -2 12 C-2.66 11.01 -3.32 10.02 -4 9 C-4.99 9.99 -5.98 10.98 -7 12 C-6.505 12.99 -6.505 12.99 -6 14 C-6.57234375 14.495 -7.1446875 14.99 -7.734375 15.5 C-11.11873529 19.23446653 -13.10822849 23.63948363 -15.29296875 28.15625 C-18.14628137 33.59886766 -21.23519394 35.923332 -27 38 C-31.22700954 39.15282078 -34.77278916 39.40907028 -39 38 C-40.17426264 35.65147472 -40.11508173 34.26225935 -40.09765625 31.6484375 C-40.09443359 30.79765625 -40.09121094 29.946875 -40.08789062 29.0703125 C-40.07951172 28.18085938 -40.07113281 27.29140625 -40.0625 26.375 C-40.05798828 25.4778125 -40.05347656 24.580625 -40.04882812 23.65625 C-40.03702591 21.43743352 -40.02056155 19.21874982 -40 17 C-39.34 17.33 -38.68 17.66 -38 18 C-37.67 17.67 -37.34 17.34 -37 17 C-33.91839436 15.19354152 -32.77969755 15 -29 15 C-28.67 14.34 -28.34 13.68 -28 13 C-27.01 13.33 -26.02 13.66 -25 14 C-22.38901957 13.76129575 -22.38901957 13.76129575 -20 13 C-19.67 12.34 -19.34 11.68 -19 11 C-15.01624339 9.82830688 -11.12560776 9.91910573 -7 10 C-6.67 9.01 -6.34 8.02 -6 7 C-5.34 7 -4.68 7 -4 7 C-3.71125 6.401875 -3.4225 5.80375 -3.125 5.1875 C-2 3 -2 3 0 0 Z " fill="#B57CD0" transform="translate(136,182)"/>
<path d="M0 0 C2.10711141 0.18940512 4.21525794 0.3675941 6.32421875 0.53515625 C7.37158203 0.62216797 8.41894531 0.70917969 9.49804688 0.79882812 C11.07682617 0.9293457 11.07682617 0.9293457 12.6875 1.0625 C14.33008789 1.19881836 14.33008789 1.19881836 16.00585938 1.33789062 C18.67054133 1.55897777 21.33525493 1.77967507 24 2 C24 6 24 6 22.8203125 7.7109375 C16.53664345 13.87877855 9.17853427 20 0 20 C-0.99 19.34 -1.98 18.68 -3 18 C-3 17.34 -3 16.68 -3 16 C-3.68707031 16.02320313 -4.37414062 16.04640625 -5.08203125 16.0703125 C-6.43361328 16.09738281 -6.43361328 16.09738281 -7.8125 16.125 C-8.70582031 16.14820313 -9.59914062 16.17140625 -10.51953125 16.1953125 C-13 16 -13 16 -16 14 C-16 13.01 -16 12.02 -16 11 C-18.97 10.505 -18.97 10.505 -22 10 C-22.33 8.35 -22.66 6.7 -23 5 C-21.2489012 3.9456735 -19.47256626 2.93323582 -17.6875 1.9375 C-16.70136719 1.36902344 -15.71523437 0.80054688 -14.69921875 0.21484375 C-9.53707882 -1.48043135 -5.31430215 -0.69298259 0 0 Z " fill="#A99FBE" transform="translate(263,339)"/>
<path d="M0 0 C2.04296875 1.453125 2.04296875 1.453125 4.1875 3.25 C8.53222473 6.7503181 13.04470693 9.45792294 18 12 C16.68165115 15.95504656 14.26295444 17.10579022 10.875 19.1875 C10.318125 19.55552734 9.76125 19.92355469 9.1875 20.30273438 C5.00831119 22.89787581 1.87306999 23.56088553 -3 23 C-3.680625 22.01 -3.680625 22.01 -4.375 21 C-4.91125 20.34 -5.4475 19.68 -6 19 C-8.32931838 18.81980745 -10.51838914 18.93918567 -12.84375 19.15234375 C-15 19 -15 19 -16.78125 17.69140625 C-18 16 -18 16 -18 13 C-20.97 12.505 -20.97 12.505 -24 12 C-24.33 10.35 -24.66 8.7 -25 7 C-6.85456214 -2.96220118 -6.85456214 -2.96220118 0 0 Z " fill="#A99EBE" transform="translate(221,321)"/>
<path d="M0 0 C0.33 0.66 0.66 1.32 1 2 C1.9590625 2.4640625 1.9590625 2.4640625 2.9375 2.9375 C5 4 5 4 7 7 C10.76651253 7.18007231 14.41148681 7.06476677 18.171875 6.8828125 C24.13748729 6.70619898 27.7607502 7.87773289 32.8125 11.1875 C34.76010834 14.16016536 34.61660942 17.50024192 35 21 C31.79168609 21.0292483 28.58340693 21.04688189 25.375 21.0625 C24.47136719 21.07087891 23.56773437 21.07925781 22.63671875 21.08789062 C17.93799868 21.10503924 13.63637374 20.79614499 9 20 C5.04481691 19.73333767 1.08615082 19.58628707 -2.875 19.4375 C-3.94492188 19.39431641 -5.01484375 19.35113281 -6.1171875 19.30664062 C-8.74467754 19.20107183 -11.37225422 19.09896209 -14 19 C-13.61763184 18.49210937 -13.23526367 17.98421875 -12.84130859 17.4609375 C-9.73659213 13.33033995 -6.65813953 9.18364073 -3.625 5 C-2.93664062 4.05125 -2.24828125 3.1025 -1.5390625 2.125 C-0.77722656 1.073125 -0.77722656 1.073125 0 0 Z " fill="#A395B7" transform="translate(221,103)"/>
<path d="M0 0 C0.99 0.66 1.98 1.32 3 2 C1.625 4.5 1.625 4.5 0 7 C-0.66 7 -1.32 7 -2 7 C-2.04125 7.680625 -2.0825 8.36125 -2.125 9.0625 C-3.35298961 13.18503653 -5.84923793 16.09996171 -9 19 C-9.66 19 -10.32 19 -11 19 C-11.33 19.66 -11.66 20.32 -12 21 C-12 20.34 -12 19.68 -12 19 C-12.61875 19.185625 -13.2375 19.37125 -13.875 19.5625 C-16 20 -16 20 -18 19 C-18.33 19.66 -18.66 20.32 -19 21 C-23.13921544 22.85642924 -27.49950772 24.03962123 -32 24.5625 C-33.485 24.7790625 -33.485 24.7790625 -35 25 C-35.33 25.66 -35.66 26.32 -36 27 C-37.65 27.33 -39.3 27.66 -41 28 C-41 23.05 -41 18.1 -41 13 C-38.78645833 12.54427083 -36.57291667 12.08854167 -34.359375 11.6328125 C-32.0191164 11.00512725 -30.12097661 10.15771858 -28 9 C-25.26859824 7.51014449 -24.19398323 7 -21 7 C-20.34 6.34 -19.68 5.68 -19 5 C-16.72265625 4.3671875 -16.72265625 4.3671875 -14.0625 3.875 C-13.18722656 3.70742187 -12.31195313 3.53984375 -11.41015625 3.3671875 C-9 3 -9 3 -6 3 C-5.34 2.34 -4.68 1.68 -4 1 C-3.01 1 -2.02 1 -1 1 C-0.67 0.67 -0.34 0.34 0 0 Z " fill="#C28ED7" transform="translate(138,173)"/>
<path d="M0 0 C1.36125 0.7115625 1.36125 0.7115625 2.75 1.4375 C5.34252307 2.68390532 7.27214357 3.33870147 10 4 C13.43118126 5.39788866 16.76198055 6.87856151 20.0625 8.5625 C22.95631106 10.05930113 22.95631106 10.05930113 26 11 C31.99503595 12.99834532 35.56239069 15.56239069 40 20 C42.17346568 20.86119134 42.17346568 20.86119134 44 21 C44 21.66 44 22.32 44 23 C44.94875 22.95875 45.8975 22.9175 46.875 22.875 C50 23 50 23 52 25 C53.36125 25.433125 53.36125 25.433125 54.75 25.875 C61.05882353 28.05882353 61.05882353 28.05882353 64 31 C64.51774274 35.04486512 64.34430839 38.94481226 64 43 C63.505 41.02 63.505 41.02 63 39 C61.824375 38.814375 61.824375 38.814375 60.625 38.625 C58 38 58 38 56 36 C53.75978612 34.71198329 51.47872657 33.5184741 49.19140625 32.31640625 C47.10069864 31.06049099 45.68406797 29.73839275 44 28 C42.09821215 27.39938767 42.09821215 27.39938767 40 27 C38.3255761 26.3530635 36.65697379 25.69040574 35 25 C35 24.34 35 23.68 35 23 C31.62902617 21.50178941 29.79557881 21 26 21 C26 20.34 26 19.68 26 19 C24.989375 18.71125 23.97875 18.4225 22.9375 18.125 C17.46875 16.5625 17.46875 16.5625 12 15 C12 14.34 12 13.68 12 13 C10.989375 12.71125 9.97875 12.4225 8.9375 12.125 C7.98810547 11.85042969 7.98810547 11.85042969 7.01953125 11.5703125 C5.68817003 11.19433815 4.352122 10.83453018 3.01171875 10.4921875 C1.32511536 10.05220401 -0.33987895 9.53123874 -2 9 C-3 7 -3 7 -2.125 3.9375 C-1 1 -1 1 0 0 Z " fill="#E5CBD3" transform="translate(205,216)"/>
<path d="M0 0 C9.71713892 0.3567051 19.1459105 1.19486937 28.72216797 2.90893555 C33.55740676 3.77423937 38.34624296 4.43149688 43.25 4.7890625 C45 5 45 5 47 6 C45.6104538 9.35806998 44.27054981 11.32052848 41 13 C33.94579142 13.14696268 28.06586787 9.25704236 22 6 C21.88897949 6.73895508 21.77795898 7.47791016 21.66357422 8.23925781 C20.97277352 11.11327336 20.07242327 12.77147816 18.3828125 15.171875 C17.85816406 15.91824219 17.33351562 16.66460937 16.79296875 17.43359375 C16.24253906 18.19800781 15.69210938 18.96242187 15.125 19.75 C14.58230469 20.52988281 14.03960937 21.30976563 13.48046875 22.11328125 C9.38435007 27.87188331 9.38435007 27.87188331 6 29 C6.556875 27.63875 6.556875 27.63875 7.125 26.25 C8.29417689 23.14261591 8.29417689 23.14261591 7.1875 20.75 C6.795625 20.1725 6.40375 19.595 6 19 C5.67 18.34 5.34 17.68 5 17 C4.505 16.38125 4.01 15.7625 3.5 15.125 C1.95238709 12.93254838 1.53353757 11.59146822 1 9 C0.62875 7.989375 0.2575 6.97875 -0.125 5.9375 C-1 3 -1 3 0 0 Z " fill="#C17ACF" transform="translate(207,125)"/>
<path d="M0 0 C-1.32 0.66 -2.64 1.32 -4 2 C-4 2.66 -4 3.32 -4 4 C-3.01 4.495 -3.01 4.495 -2 5 C-2 5.66 -2 6.32 -2 7 C-3.04849121 6.79141357 -4.09698242 6.58282715 -5.17724609 6.36791992 C-17.35834569 4.07213193 -29.25160948 3.4651901 -41.625 3.3125 C-43.51825099 3.27921385 -45.41148105 3.24471449 -47.3046875 3.20898438 C-51.8696727 3.12540359 -56.43462117 3.0580046 -61 3 C-61.33 2.34 -61.66 1.68 -62 1 C-62.556875 1.20625 -63.11375 1.4125 -63.6875 1.625 C-66.6757521 2.10958142 -68.2476787 1.16973655 -71 0 C-72.32 0 -73.64 0 -75 0 C-75.33 -0.99 -75.66 -1.98 -76 -3 C-50.78975971 -6.88383344 -24.83194587 -5.90015243 0 0 Z " fill="#A5A4E2" transform="translate(314,21)"/>
<path d="M0 0 C1.0725 0.556875 2.145 1.11375 3.25 1.6875 C4.425625 2.0175 5.60125 2.3475 6.8125 2.6875 C10.12709767 3.65174659 12.3472986 4.87331163 15.25 6.6875 C16.405 7.14125 17.56 7.595 18.75 8.0625 C22.25 9.6875 22.25 9.6875 24.5625 12.125 C27.76461395 15.17817842 30.72057236 16.27353992 34.82421875 17.78125 C37.74719778 18.87324861 40.4611671 20.29308355 43.25 21.6875 C45.24172182 22.37850553 47.24161804 23.04652703 49.25 23.6875 C53.27640325 25.15164664 55.23237622 26.66987622 58.25 29.6875 C58.51991906 32.37589385 58.33737357 34.97891936 58.25 37.6875 C56.765 37.1925 56.765 37.1925 55.25 36.6875 C55.25 36.0275 55.25 35.3675 55.25 34.6875 C50.07169265 32.00245175 44.86830441 30.24814011 39.25 28.6875 C38.26 28.3575 37.27 28.0275 36.25 27.6875 C36.25 27.0275 36.25 26.3675 36.25 25.6875 C34.3628125 25.254375 34.3628125 25.254375 32.4375 24.8125 C29.3960601 24.11446461 27.94330122 23.48303415 25.25 21.6875 C25.25 21.0275 25.25 20.3675 25.25 19.6875 C21.55376141 17.69721768 17.50699221 15.6875 13.25 15.6875 C12.775625 15.1925 12.30125 14.6975 11.8125 14.1875 C10.25030058 12.34123409 10.25030058 12.34123409 7.25 12.6875 C6.59 12.0275 5.93 11.3675 5.25 10.6875 C4.280625 10.543125 3.31125 10.39875 2.3125 10.25 C-0.95543962 9.64976619 -1.65642455 9.09511177 -3.75 6.6875 C-4.41 6.6875 -5.07 6.6875 -5.75 6.6875 C-6.41 7.3475 -7.07 8.0075 -7.75 8.6875 C-7.26421457 5.56459365 -6.7513988 2.69169641 -5.75 -0.3125 C-2.75 -1.3125 -2.75 -1.3125 0 0 Z " fill="#DEC1B6" transform="translate(211.75,203.3125)"/>
<path d="M0 0 C3.62031557 0 4.95460298 1.1430506 8 3 C9.32823301 3.35310898 10.66223168 3.68493681 12 4 C16.14177953 5.4156473 20.08705357 7.04352679 24 9 C25.99220557 9.68960962 27.99105606 10.36079057 30 11 C30 11.66 30 12.32 30 13 C30.99 12.67 31.98 12.34 33 12 C35.5 13.375 35.5 13.375 38 15 C38.99 15.33 39.98 15.66 41 16 C42 17 43 18 44 19 C45.32826192 19.67671449 46.66230965 20.3421195 48 21 C49.30077185 21.79784185 50.592399 22.61076321 51.875 23.4375 C55.15696701 25.51484991 58.48771583 27.33166502 62 29 C62 29.66 62 30.32 62 31 C62.99 31 63.98 31 65 31 C64.67 32.65 64.34 34.3 64 36 C63.2575 35.54625 62.515 35.0925 61.75 34.625 C58.45619 32.64848483 58.45619 32.64848483 55 31 C54.01 31.495 54.01 31.495 53 32 C52.34 31.01 51.68 30.02 51 29 C50.01 29 49.02 29 48 29 C47.505 28.01 47.505 28.01 47 27 C45.34080104 26.63128912 43.67225729 26.30404678 42 26 C38.97667521 24.94535182 37.27725897 24.27725897 35 22 C34.01 22.495 34.01 22.495 33 23 C32.34 22.34 31.68 21.68 31 21 C29.845 20.67 28.69 20.34 27.5 20 C24 19 24 19 22 17 C21.21625 16.855625 20.4325 16.71125 19.625 16.5625 C16.67666803 15.93071458 15.37984889 14.78488667 13 13 C11.34385343 12.61781233 9.67542976 12.28604898 8 12 C6.33066942 11.3400321 4.6635479 10.67441131 3 10 C0.78918149 9.89459074 0.78918149 9.89459074 -2 11 C-1.85957123 9.35369672 -1.71250671 7.70795821 -1.5625 6.0625 C-1.48128906 5.14597656 -1.40007812 4.22945312 -1.31640625 3.28515625 C-1 1 -1 1 0 0 Z " fill="#E5CFE0" transform="translate(203,224)"/>
<path d="M0 0 C0 0.66 0 1.32 0 2 C-0.66 2 -1.32 2 -2 2 C-2.68707555 4.49064888 -3 6.37886292 -3 9 C-3.33 9.66 -3.66 10.32 -4 11 C-4.66 11 -5.32 11 -6 11 C-7.4606285 13.64738916 -8 14.89448334 -8 18 C-9.4375 19.5625 -9.4375 19.5625 -11 21 C-11.33 21.66 -11.66 22.32 -12 23 C-11.34 23.33 -10.68 23.66 -10 24 C-10.515625 24.4125 -11.03125 24.825 -11.5625 25.25 C-12.036875 25.8275 -12.51125 26.405 -13 27 C-12.8246875 27.598125 -12.649375 28.19625 -12.46875 28.8125 C-11.84307681 31.7323082 -12.64912945 33.09517585 -13.9375 35.75 C-14.31777344 36.54921875 -14.69804687 37.3484375 -15.08984375 38.171875 C-15.39019531 38.77515625 -15.69054687 39.3784375 -16 40 C-16.99 40 -17.98 40 -19 40 C-20.5703125 38.35546875 -20.5703125 38.35546875 -22.125 36.1875 C-22.64320313 35.47980469 -23.16140625 34.77210938 -23.6953125 34.04296875 C-26.97899681 28.90115169 -26.78199299 22.87611872 -26 17 C-21.93891067 8.27357622 -9.73476338 0 0 0 Z " fill="#A696DD" transform="translate(395,227)"/>
<path d="M0 0 C1.3303125 0.56267578 1.3303125 0.56267578 2.6875 1.13671875 C3.533125 1.50410156 4.37875 1.87148437 5.25 2.25 C5.91 2.52457031 6.57 2.79914063 7.25 3.08203125 C8.92641183 3.78178351 10.58866158 4.51517724 12.25 5.25 C13.3225 5.70375 14.395 6.1575 15.5 6.625 C18.25 8.25 18.25 8.25 19.75 10.875 C21.0662016 13.56139848 21.0662016 13.56139848 24.1875 14 C25.198125 14.0825 26.20875 14.165 27.25 14.25 C29.5 14.625 29.5 14.625 31.25 15.25 C31.91 16.24 32.57 17.23 33.25 18.25 C34.24 18.25 35.23 18.25 36.25 18.25 C37.93834592 18.85968047 39.60202764 19.53837557 41.25 20.25 C42.405 20.745 43.56 21.24 44.75 21.75 C45.905 22.245 47.06 22.74 48.25 23.25 C49.9142135 23.92276716 51.57986582 24.59206835 53.25 25.25 C53.745 29.21 53.745 29.21 54.25 33.25 C53.26 33.745 53.26 33.745 52.25 34.25 C51.59 33.59 50.93 32.93 50.25 32.25 C49.280625 32.105625 48.31125 31.96125 47.3125 31.8125 C43.91084797 31.18770677 43.52405485 30.61880713 41.25 28.25 C38.34877656 27.11473865 35.63722773 26.31303707 32.5625 25.8125 C29.86171963 25.15555342 29.17134837 24.17134837 27.25 22.25 C24.64388923 21.52802838 24.64388923 21.52802838 22.25 21.25 C22.25 20.59 22.25 19.93 22.25 19.25 C21.26 19.58 20.27 19.91 19.25 20.25 C18.755 19.5075 18.26 18.765 17.75 18 C14.69243568 14.63667925 11.50000499 12.81211682 7.25 11.25 C6.26 11.25 5.27 11.25 4.25 11.25 C3.816875 10.79625 3.38375 10.3425 2.9375 9.875 C0.29097809 7.32649742 -3.08707961 6.25 -6.75 6.25 C-8.75 4.25 -8.75 4.25 -9.75 2.25 C-6.66757839 -2.37363241 -4.70187279 -2.01508834 0 0 Z " fill="#DDB899" transform="translate(217.75,191.75)"/>
<path d="M0 0 C0.66 0.66 1.32 1.32 2 2 C-4.27145839 8.69866945 -4.27145839 8.69866945 -8.46484375 9.4296875 C-10.875 9.375 -10.875 9.375 -13.1171875 9.1484375 C-15.08998116 8.82993762 -15.08998116 8.82993762 -17 10 C-17.66 9.67 -18.32 9.34 -19 9 C-19.33 9.66 -19.66 10.32 -20 11 C-24.47540984 12.26229508 -24.47540984 12.26229508 -27 11 C-27.33 11.66 -27.66 12.32 -28 13 C-30.66537314 13.73527535 -33.30791712 14.38466677 -36 15 C-41.38990839 16.48687128 -46.67984856 18.16079629 -51.9375 20.0625 C-55.28184118 21.08627791 -58.5319827 21.58383792 -62 22 C-61.88541307 20.56163249 -61.75790884 19.12429034 -61.625 17.6875 C-61.55539063 16.88699219 -61.48578125 16.08648437 -61.4140625 15.26171875 C-61 13 -61 13 -59 10 C-58.67 10.66 -58.34 11.32 -58 12 C-57.34 11.67 -56.68 11.34 -56 11 C-55.34 11.66 -54.68 12.32 -54 13 C-53.34 12.34 -52.68 11.68 -52 11 C-50.00116131 10.65977214 -48.00109278 10.32670903 -46 10 C-45.01 9.34 -44.02 8.68 -43 8 C-41.1665483 8 -39.33287902 8.01667802 -37.5 8.0625 C-34.86852656 8.1186307 -34.86852656 8.1186307 -32 7 C-31.67 6.34 -31.34 5.68 -31 5 C-28.69 5.33 -26.38 5.66 -24 6 C-23.67 5.34 -23.34 4.68 -23 4 C-19.54956883 2.84985628 -16.64717645 2 -13 2 C-11.7625 1.7525 -11.7625 1.7525 -10.5 1.5 C-8 1 -8 1 -5 1 C-3 0 -3 0 0 0 Z " fill="#D3AAE0" transform="translate(163,149)"/>
<path d="M0 0 C5.84587284 0.49752109 10.87547493 2.08583875 16 5 C16.33 5.66 16.66 6.32 17 7 C18.99760305 7.34740923 20.99787771 7.67966043 23 8 C23.99 8.66 24.98 9.32 26 10 C26 10.66 26 11.32 26 12 C26.99 11.67 27.98 11.34 29 11 C35.33333333 13.33333333 35.33333333 13.33333333 38 16 C39.32148827 16.37756808 40.65835921 16.7018576 42 17 C44.00382009 17.65509503 46.00458132 18.31974363 48 19 C48 19.66 48 20.32 48 21 C48.721875 21.12375 49.44375 21.2475 50.1875 21.375 C52.9657312 21.99238471 55.38223555 22.89778339 58 24 C58.99 24.33 59.98 24.66 61 25 C61.125 27.875 61.125 27.875 61 31 C60.34 31.66 59.68 32.32 59 33 C58.29875 32.525625 57.5975 32.05125 56.875 31.5625 C53.83060387 29.90793689 51.39115208 29.52751255 48 29 C47.34 28.34 46.68 27.68 46 27 C45.21625 26.855625 44.4325 26.71125 43.625 26.5625 C40.67666803 25.93071458 39.37984889 24.78488667 37 23 C35.33805547 22.64386903 33.671549 22.30791692 32 22 C31.34 21.34 30.68 20.68 30 20 C27.8804158 18.83057423 25.74841704 17.89936682 23.5 17 C17.25 14.5 17.25 14.5 16 12 C15.01 12 14.02 12 13 12 C12.21625 11.525625 11.4325 11.05125 10.625 10.5625 C7.97553419 8.98543702 5.98750718 8.56520406 3 8 C2.34 7.34 1.68 6.68 1 6 C0.01 5.67 -0.98 5.34 -2 5 C-1.34 3.35 -0.68 1.7 0 0 Z " fill="#DCAF7B" transform="translate(214,180)"/>
<path d="M0 0 C0.47308594 0.37511719 0.94617188 0.75023437 1.43359375 1.13671875 C5.83449748 4.54248636 10.23364084 7.33788934 15.21484375 9.82421875 C17 11 17 11 18 14 C21.63966678 16.15071219 24.87834457 17.24074768 29 18 C31.30102665 19.00669916 33.27345878 20.17990709 35.375 21.5625 C38.28696148 23.15714557 40.74513134 23.4936871 44 24 C44.66 24.66 45.32 25.32 46 26 C48.83200295 27.6100773 48.83200295 27.6100773 52 28 C51.42655063 30.86724686 51.1385485 31.8614515 49 34 C47.51800098 33.55090939 46.03944764 33.09043436 44.5625 32.625 C43.73878906 32.36976563 42.91507812 32.11453125 42.06640625 31.8515625 C40 31 40 31 39 29 C36.66752239 28.66073053 34.33414529 28.32759934 32 28 C31.34 27.34 30.68 26.68 30 26 C28.54490027 25.24345858 27.06177898 24.53970496 25.5625 23.875 C24.78003906 23.52179688 23.99757812 23.16859375 23.19140625 22.8046875 C20.91972253 21.82765145 20.91972253 21.82765145 18 22 C17.34 21.34 16.68 20.68 16 20 C15.01 19.67 14.02 19.34 13 19 C12.54625 18.525625 12.0925 18.05125 11.625 17.5625 C8.40120726 14.46269929 5.38483613 14 1 14 C1 13.34 1 12.68 1 12 C-0.98 11.34 -2.96 10.68 -5 10 C-5 9.34 -5 8.68 -5 8 C-6.32 8.33 -7.64 8.66 -9 9 C-8.06725891 7.87105124 -7.12859878 6.74699124 -6.1875 5.625 C-5.66542969 4.99851563 -5.14335937 4.37203125 -4.60546875 3.7265625 C-3 2 -3 2 0 0 Z " fill="#DC9F53" transform="translate(230,162)"/>
<path d="M0 0 C3.4295887 1.4965478 6.70932719 2.91773411 10.3125 3.9375 C13 5 13 5 13.9375 7.0625 C14.288125 7.701875 14.63875 8.34125 15 9 C17.32249342 9.40197001 19.65885633 9.72686657 22 10 C24.03273074 10.93166826 26.03384339 11.9349985 28 13 C30.32671865 14.01529541 32.6603447 15.01488198 35 16 C40.35703879 18.28170171 45.68378415 20.62518249 51 23 C50.67 24.98 50.34 26.96 50 29 C47.79373944 28.26457981 45.58768812 27.52862893 43.3828125 26.7890625 C41.51265101 26.16976312 39.63291757 25.57935925 37.75 25 C34.88850949 23.959458 32.59518667 22.5824309 30 21 C27.68020619 19.96898053 25.34570085 18.97063483 23 18 C19.64587151 16.58773537 16.35200237 15.18365341 13.125 13.5 C10.55222594 12.26506845 8.20858136 11.40043905 5.5 10.5625 C1.49055638 9.29104892 -1.51930759 7.37319937 -5 5 C-7.7282504 4.21784412 -7.7282504 4.21784412 -10 4 C-9.1875 1.5625 -9.1875 1.5625 -8 -1 C-4.25259333 -2.24913556 -3.52319953 -1.60145433 0 0 Z " fill="#DDA55F" transform="translate(228,172)"/>
<path d="M0 0 C1.36705078 0.58007812 1.36705078 0.58007812 2.76171875 1.171875 C17.83999163 7.32469694 33.72987228 10.39628469 50 11 C50 12.98 50 14.96 50 17 C32.22032846 17.55658102 11.69234443 16.15386759 -4 7 C-3.67 6.01 -3.34 5.02 -3 4 C-2.34 4 -1.68 4 -1 4 C-0.67 2.68 -0.34 1.36 0 0 Z " fill="#675B71" transform="translate(237,324)"/>
<path d="M0 0 C2 1 2 1 2.625 2.5625 C4.00215983 11.51403888 4.00215983 11.51403888 1.30078125 15.51953125 C-1.02362708 18.02547232 -3.30621751 19.82698221 -6.125 21.75 C-11.01118202 25.19446476 -15.37444135 28.96030947 -19.76171875 33.01171875 C-22.37256886 35.33095559 -25.01809647 37.19516365 -28 39 C-26.70965802 26.75083807 -15.85703671 17.45004261 -7.40991211 9.38134766 C-6.73968018 8.73858887 -6.06944824 8.09583008 -5.37890625 7.43359375 C-4.7763501 6.86697021 -4.17379395 6.30034668 -3.55297852 5.71655273 C-1.9259256 3.91812339 -0.97618625 2.20948625 0 0 Z " fill="#C98350" transform="translate(400,435)"/>
<path d="M0 0 C0.33 0.66 0.66 1.32 1 2 C1.93585938 2.42539063 1.93585938 2.42539063 2.890625 2.859375 C5.51752397 4.2798463 6.31835572 5.65183076 7.75 8.25 C8.17796875 8.99765625 8.6059375 9.7453125 9.046875 10.515625 C10 13 10 13 10 19 C2.08 19 -5.84 19 -14 19 C-12.02 16.36 -10.04 13.72 -8 11 C-6.53687869 9.00350002 -5.07787649 7.00396757 -3.625 5 C-2.93664062 4.05125 -2.24828125 3.1025 -1.5390625 2.125 C-0.77722656 1.073125 -0.77722656 1.073125 0 0 Z " fill="#B39FBD" transform="translate(221,103)"/>
<path d="M0 0 C3.4375 0.625 3.4375 0.625 5.875 2.625 C7.86881278 6.45312053 8.41789906 9.39649621 7.4375 13.625 C4.97198014 17.10573393 3.58856301 18.41358026 -0.625 19.1875 C-4.17984581 18.50678485 -5.339546 17.42427541 -7.5625 14.625 C-9.13185594 11.48628812 -8.91451103 9.08644178 -8.5625 5.625 C-5.94681879 1.89963585 -4.5021067 0.78984328 0 0 Z " fill="#271D3B" transform="translate(282.5625,126.375)"/>
<path d="M0 0 C1.5778125 0.680625 1.5778125 0.680625 3.1875 1.375 C5.28395538 2.27408107 7.38182164 3.15272866 9.5 4 C12.6917416 5.27669664 15.84319746 6.63930925 19 8 C20.31236764 8.56280874 21.62486288 9.12532006 22.9375 9.6875 C24.4534375 10.3371875 24.4534375 10.3371875 26 11 C26 11.99 26 12.98 26 14 C26.66 14.33 27.32 14.66 28 15 C27.67 16.32 27.34 17.64 27 19 C20.25 18.25 20.25 18.25 18 16 C17.01 16 16.02 16 15 16 C14 15 13 14 12 13 C9.99427359 12.18553891 9.99427359 12.18553891 8 12 C7.01 12.495 7.01 12.495 6 13 C5.443125 12.360625 4.88625 11.72125 4.3125 11.0625 C1.77933439 8.80319013 0.31658576 8.36850953 -3 8 C-1.125 1.125 -1.125 1.125 0 0 Z " fill="#E4BDA5" transform="translate(209,195)"/>
<path d="M0 0 C0.53589749 6.43076986 0.0752314 11.75662409 -4 17 C-6.375 18.1875 -6.375 18.1875 -9 18 C-13.83108702 16.26080867 -15.56133334 14.40114398 -18 10 C-4.1369863 0 -4.1369863 0 0 0 Z " fill="#DB8B37" transform="translate(320,173)"/>
<path d="M0 0 C-4.29167545 11.07851104 -23.79773811 19.10816242 -33.875 23.875 C-38.19270601 25.77479064 -42.38523006 27.04221756 -47 28 C-46.4375 26.0625 -46.4375 26.0625 -45 24 C-43.39561583 23.82932083 -41.79062228 23.66319492 -40.18359375 23.51953125 C-31.17398477 21.37592124 -21.42528779 12.64789261 -15.0625 6.0625 C-14.381875 5.381875 -13.70125 4.70125 -13 4 C-12.34 4 -11.68 4 -11 4 C-10.01 3.34 -9.02 2.68 -8 2 C-7.34 2 -6.68 2 -6 2 C-3 0 -3 0 0 0 Z M-13 3 C-11 4 -11 4 -11 4 Z " fill="#7D96DD" transform="translate(378,364)"/>
<path d="M0 0 C9.26260429 -0.44185568 17.71256523 0.6267913 26.79296875 2.26953125 C30.9311865 3.01394807 35.05623622 3.48326722 39.25 3.7890625 C41 4 41 4 43 5 C41.6104538 8.35806998 40.27054981 10.32052848 37 12 C31.97993535 11.62033125 28.22040012 10.38266438 23.75 8.125 C16.09098734 4.44973155 8.42669651 2.13874277 0 1 C0 0.67 0 0.34 0 0 Z " fill="#A395B6" transform="translate(211,126)"/>
<path d="M0 0 C1.98 0.66 3.96 1.32 6 2 C6 2.66 6 3.32 6 4 C6.94875 3.95875 7.8975 3.9175 8.875 3.875 C12 4 12 4 14 6 C14.9075 6.28875 15.815 6.5775 16.75 6.875 C23.05882353 9.05882353 23.05882353 9.05882353 26 12 C26.51774274 16.04486512 26.34430839 19.94481226 26 24 C25.67 22.68 25.34 21.36 25 20 C24.21625 19.87625 23.4325 19.7525 22.625 19.625 C20 19 20 19 18 17 C16.6363398 16.270074 15.25939712 15.56478672 13.875 14.875 C8.5720069 11.98323839 2.20095382 7.7529807 0.28125 1.75390625 C0.1884375 1.17511719 0.095625 0.59632813 0 0 Z " fill="#D7C9D5" transform="translate(243,235)"/>
<path d="M0 0 C0.94875 0.515625 1.8975 1.03125 2.875 1.5625 C4.421875 2.2740625 4.421875 2.2740625 6 3 C6.66 2.67 7.32 2.34 8 2 C5.64169023 9.0749293 -6.42211404 15.65125806 -13 19 C-14.3228853 19.37264375 -15.65511196 19.71686568 -17 20 C-17 17 -17 17 -16 15 C-15.34 15 -14.68 15 -14 15 C-13.773125 14.360625 -13.54625 13.72125 -13.3125 13.0625 C-11.51434174 8.86679739 -9.26095979 4.96099444 -7 1 C-4.03 1.495 -4.03 1.495 -1 2 C-0.67 1.34 -0.34 0.68 0 0 Z " fill="#7783D5" transform="translate(353,369)"/>
<path d="M0 0 C4.45786773 0.51835671 7.2255816 1.6409885 11 4 C12.99571323 4.67939174 14.99594773 5.34561559 17 6 C22.81707317 8.63414634 22.81707317 8.63414634 24 11 C23.67 11.99 23.34 12.98 23 14 C19.86650268 15.04449911 19.01031744 14.93423645 16 14 C16 13.34 16 12.68 16 12 C14.68 12 13.36 12 12 12 C11.34 11.34 10.68 10.68 10 10 C9.01 10 8.02 10 7 10 C6.34 9.34 5.68 8.68 5 8 C4.01 8 3.02 8 2 8 C1.34 7.34 0.68 6.68 0 6 C-0.99 5.34 -1.98 4.68 -3 4 C-2.01 2.68 -1.02 1.36 0 0 Z " fill="#E6AA6D" transform="translate(217,175)"/>
<path d="M0 0 C0.61488281 0.22816406 1.22976563 0.45632812 1.86328125 0.69140625 C2.67152344 0.97886719 3.47976563 1.26632813 4.3125 1.5625 C5.11300781 1.85253906 5.91351563 2.14257812 6.73828125 2.44140625 C9.1433174 3.24915625 9.1433174 3.24915625 12 2 C13.68704193 3.30745749 15.35360035 4.64172029 17 6 C17.99 6 18.98 6 20 6 C20.66 6 21.32 6 22 6 C21.67 6.99 21.34 7.98 21 9 C16.65450479 10.4484984 12.54143034 10.52265295 8 10 C4.14455202 8.00342873 2.40194908 6.60292362 0 3 C0 2.01 0 1.02 0 0 Z " fill="#D8964A" transform="translate(289,187)"/>
<path d="M0 0 C7.92 0 15.84 0 24 0 C24.33 1.65 24.66 3.3 25 5 C13.615 4.505 13.615 4.505 2 4 C1.34 2.68 0.68 1.36 0 0 Z " fill="#695C73" transform="translate(206,122)"/>
<path d="M0 0 C1.32 0.66 2.64 1.32 4 2 C4 2.66 4 3.32 4 4 C4.66 4.33 5.32 4.66 6 5 C6 6.32 6 7.64 6 9 C4.33333333 10.66666667 2.66666667 12.33333333 1 14 C0.34 13.01 -0.32 12.02 -1 11 C-1.33 11.66 -1.66 12.32 -2 13 C-2.99 13 -3.98 13 -5 13 C-4.64989059 4.80743982 -4.64989059 4.80743982 -1.9375 1.4375 C-1.298125 0.963125 -0.65875 0.48875 0 0 Z " fill="#7975CB" transform="translate(360,188)"/>
<path d="M0 0 C0.33 0.66 0.66 1.32 1 2 C1.639375 2.28875 2.27875 2.5775 2.9375 2.875 C5.44270593 4.24147596 5.85178295 5.45641604 7 8 C6.41992188 8.18175781 5.83984375 8.36351563 5.2421875 8.55078125 C1.50982132 9.75179017 -1.93229048 10.9655297 -5.4375 12.75 C-6.7059375 13.36875 -6.7059375 13.36875 -8 14 C-8.66 13.67 -9.32 13.34 -10 13 C-9.52949219 12.48050781 -9.05898437 11.96101563 -8.57421875 11.42578125 C-5.32559823 7.78705723 -2.30339528 4.33580287 0 0 Z " fill="#C17ED0" transform="translate(221,103)"/>
<path d="M0 0 C0.48372093 7.25581395 0.48372093 7.25581395 -1.625 10.5 C-4.60098323 12.37956836 -6.54330418 12.31424507 -10 12 C-10 8 -10 8 -8.06640625 5.859375 C-7.24011719 5.16328125 -6.41382813 4.4671875 -5.5625 3.75 C-4.73878906 3.04359375 -3.91507812 2.3371875 -3.06640625 1.609375 C-1 0 -1 0 0 0 Z " fill="#1A1938" transform="translate(289,133)"/>
<path d="M0 0 C-2.93828597 2.50298434 -5.17902761 3.46930939 -9 4 C-9.33 4.99 -9.66 5.98 -10 7 C-10.66 6.67 -11.32 6.34 -12 6 C-14.35981813 6.93578995 -16.69631264 7.93347808 -19 9 C-19 7.68 -19 6.36 -19 5 C-16.21142 3.96995707 -13.41969712 2.95069003 -10.625 1.9375 C-9.8309375 1.64294922 -9.036875 1.34839844 -8.21875 1.04492188 C-7.45820313 0.77099609 -6.69765625 0.49707031 -5.9140625 0.21484375 C-5.2123291 -0.04176025 -4.5105957 -0.29836426 -3.78759766 -0.56274414 C-2 -1 -2 -1 0 0 Z " fill="#8FA3E4" transform="translate(329,394)"/>
<path d="M0 0 C0 0.66 0 1.32 0 2 C1.32 2.66 2.64 3.32 4 4 C-3.55137932 4.30071865 -10.58856436 3.42625566 -18 2 C-18 1.67 -18 1.34 -18 1 C-16.12528812 0.83012319 -14.25021305 0.66425224 -12.375 0.5 C-11.33085937 0.4071875 -10.28671875 0.314375 -9.2109375 0.21875 C-6.12853212 0.00875645 -3.08834771 -0.03709727 0 0 Z " fill="#9BA3DA" transform="translate(253,419)"/>
<path d="M0 0 C2.04136395 -0.05451714 4.08315856 -0.09302485 6.125 -0.125 C7.83042969 -0.15980469 7.83042969 -0.15980469 9.5703125 -0.1953125 C13.05757767 0.00327891 15.7553862 0.7475199 19 2 C19 2.99 19 3.98 19 5 C12.73 3.68 6.46 2.36 0 1 C0 0.67 0 0.34 0 0 Z " fill="#AD9AB8" transform="translate(211,126)"/>
<path d="M0 0 C0.66 0.66 1.32 1.32 2 2 C1.34 2 0.68 2 0 2 C0.48484276 6.64586892 0.48484276 6.64586892 2 11 C0.68 11.33 -0.64 11.66 -2 12 C-4 9 -4 9 -5 7 C-3.35 4.69 -1.7 2.38 0 0 Z " fill="#B463C7" transform="translate(136,182)"/>
<path d="M0 0 C1.70884005 1.62339805 3.37446717 3.29319053 5 5 C5 5.66 5 6.32 5 7 C3.824375 7.4640625 3.824375 7.4640625 2.625 7.9375 C0.07669872 8.92875038 0.07669872 8.92875038 -2 10 C-1.125 2.25 -1.125 2.25 0 0 Z " fill="#DDC0E9" transform="translate(110,141)"/>
<path d="M0 0 C0.99 0.33 1.98 0.66 3 1 C2.37240135 3.92879371 1.41377341 6.36095629 0 9 C-1.32 8.01 -2.64 7.02 -4 6 C-3.34 5.34 -2.68 4.68 -2 4 C-2.33 3.34 -2.66 2.68 -3 2 C-2.01 1.34 -1.02 0.68 0 0 Z " fill="#A19BDF" transform="translate(392,267)"/>
<path d="M0 0 C1.32 1.32 2.64 2.64 4 4 C3.01 4 2.02 4 1 4 C-2.41866474 5.11106604 -4.64264116 6.27042661 -7 9 C-7.66 8.67 -8.32 8.34 -9 8 C-6.03 5.36 -3.06 2.72 0 0 Z " fill="#D79451" transform="translate(230,162)"/>
<path d="M0 0 C-0.66 1.98 -1.32 3.96 -2 6 C-3.98 5.34 -5.96 4.68 -8 4 C-4.5 0 -4.5 0 0 0 Z " fill="#DFCAEC" transform="translate(224,97)"/>
<path d="M0 0 C0.66 0.33 1.32 0.66 2 1 C0.52307692 5.67692308 0.52307692 5.67692308 -2.125 7.3125 C-3.053125 7.6528125 -3.053125 7.6528125 -4 8 C-2.87548273 5.0280615 -1.77706209 2.66559313 0 0 Z " fill="#DEC9EC" transform="translate(124,116)"/>
</svg>
